<svg width="480" height="310" viewBox="0 0 480 310" fill="none" xmlns="http://www.w3.org/2000/svg">
<g clip-path="url(#clip0_9_226)">
<path d="M265.615 38.3057C265.182 40.8611 264.128 43.271 262.547 45.3241C260.965 47.3772 258.904 49.0105 256.544 50.0808C254.184 51.1511 251.597 51.6256 249.011 51.4626C246.425 51.2996 243.919 50.5041 241.712 49.146C239.505 47.7879 237.666 45.9087 236.355 43.6733C235.044 41.438 234.301 38.9148 234.193 36.3253C234.084 33.7358 234.613 31.1592 235.732 28.8216C236.851 26.484 238.527 24.457 240.612 22.9184L240.7 22.8563C240.847 22.7463 240.994 22.6364 241.147 22.5338C241.147 22.5339 241.148 22.5339 241.149 22.5338C241.15 22.5336 241.151 22.5332 241.151 22.5328C241.152 22.5323 241.153 22.5316 241.153 22.5309C241.154 22.5302 241.154 22.5294 241.154 22.5286C241.342 22.4063 241.529 22.284 241.722 22.1691C244.313 20.5746 247.309 19.7608 250.35 19.8252C253.391 19.8895 256.35 20.8292 258.871 22.5319C261.391 24.2345 263.368 26.6278 264.565 29.4254C265.761 32.2229 266.125 35.3061 265.615 38.3057Z" fill="#2F2E41"/>
<path d="M173.739 170.367C171.788 170.909 169.705 170.716 167.886 169.826C166.066 168.935 164.637 167.408 163.869 165.533C163.1 163.659 163.046 161.568 163.716 159.657C164.387 157.745 165.735 156.146 167.505 155.162L185.068 135.237L199.923 138.447L179.03 158.91C179.544 159.998 179.812 161.186 179.817 162.389C179.822 163.592 179.564 164.781 179.059 165.874C178.555 166.966 177.817 167.934 176.898 168.711C175.979 169.487 174.901 170.052 173.739 170.367Z" fill="#A0616A"/>
<path d="M231.52 99.0343L187.747 153.98L174.404 147.854L225.855 67.7536L231.52 99.0343Z" fill="#3F3D56"/>
<path d="M32.5199 288.934C29.7766 283.612 31.2669 276.898 34.6816 271.98C38.0964 267.061 43.1387 263.556 48.0702 260.161L54.9275 255.439L51.6522 271.878C50.5465 277.437 49.1838 283.439 44.8429 287.083C43.1384 288.48 41.1028 289.415 38.9321 289.797C36.7614 290.18 34.5288 289.997 32.4493 289.266" fill="#00D084"/>
<path d="M33.0378 309.169C33.0731 309.295 33.1566 309.401 33.2702 309.466C33.3838 309.53 33.5182 309.547 33.6442 309.513C33.7682 309.475 33.8729 309.391 33.9369 309.278C34.001 309.166 34.0195 309.033 33.9887 308.907C33.6064 306.123 33.2275 303.337 33.0485 300.532C32.7503 295.894 33.0259 291.134 34.7426 286.768C36.2969 282.842 39.0579 279.51 42.6276 277.254C43.1629 276.917 42.6683 276.065 42.1301 276.403C40.067 277.703 38.2463 279.353 36.7501 281.279C33.9311 284.913 32.547 289.345 32.1145 293.883C31.6277 298.993 32.3415 304.114 33.0355 309.169L33.0378 309.169Z" fill="#00D084"/>
<path d="M102.831 277.946C81.2269 291.241 88.4287 308.967 88.4287 308.967L102.831 277.946Z" fill="#00D084"/>
<path d="M60.3718 296.118C77.3751 296.01 79.5718 308.645 79.5718 308.645L60.3718 296.118Z" fill="#00D084"/>
<path d="M334.683 310.015C332.031 310.015 329.882 307.866 329.882 305.214C329.882 302.562 332.031 300.413 334.683 300.413C337.334 300.413 339.484 302.562 339.484 305.214C339.484 307.866 337.334 310.015 334.683 310.015Z" fill="#3F3D56"/>
<path d="M331.191 208.538C331.191 208.538 319.843 174.057 318.97 171.657C318.097 169.256 308.931 173.185 306.531 173.839C304.13 174.494 304.785 176.894 304.785 176.894L317.006 212.248L313.296 213.994L301.948 178.422C295.401 171.657 300.202 171.22 300.202 171.22C300.202 171.22 314.169 166.419 319.406 165.983C324.644 165.546 322.68 171.875 322.68 171.875L335.337 205.483L331.191 208.538Z" fill="#3F3D56"/>
<path d="M303.912 216.831L303.914 216.828C305.525 214.519 307.811 212.766 310.459 211.811C310.553 211.776 310.662 211.737 310.786 211.693C316.799 209.592 358.688 198.281 358.688 198.281C358.688 198.281 366.981 195.226 370.691 203.519C374.401 211.811 396.442 280.554 396.442 280.554C396.442 280.554 353.333 303.608 340.765 306.117C339.989 306.304 339.188 306.368 338.393 306.305C336.256 306.009 334.154 305.507 332.114 304.806C329.858 304.071 327.712 303.033 325.735 301.722L301.293 228.615C301.293 228.615 297.802 220.541 303.912 216.831Z" fill="#7E71C2"/>
<path d="M303.912 216.831L303.914 216.828C305.525 214.519 307.811 212.767 310.459 211.811C310.553 211.776 310.662 211.737 310.786 211.693C308.809 215.159 308.059 220.541 308.059 220.541C308.059 220.541 332.064 291.902 334.246 298.667C335.909 303.824 339.263 305.576 340.765 306.117C339.989 306.304 339.188 306.368 338.393 306.305C336.256 306.009 334.154 305.507 332.114 304.806C331.518 304.122 330.989 303.382 330.536 302.595C330.536 302.595 306.094 229.488 303.912 225.996C301.73 222.505 303.912 216.831 303.912 216.831Z" fill="#3F3D56"/>
<path d="M349.413 310.124C346.762 310.124 344.612 307.975 344.612 305.323C344.612 302.672 346.762 300.522 349.413 300.522C352.065 300.522 354.214 302.672 354.214 305.323C354.214 307.975 352.065 310.124 349.413 310.124Z" fill="#3F3D56"/>
<path d="M396.005 289.938C393.354 289.938 391.204 287.788 391.204 285.137C391.204 282.485 393.354 280.336 396.005 280.336C398.657 280.336 400.806 282.485 400.806 285.137C400.806 287.788 398.657 289.938 396.005 289.938Z" fill="#3F3D56"/>
<path d="M311.379 174.579C313.31 175.191 315.399 175.073 317.248 174.247C319.098 173.422 320.581 171.946 321.415 170.101C322.25 168.255 322.379 166.167 321.777 164.233C321.175 162.299 319.885 160.653 318.151 159.606L301.309 139.069L286.35 141.747L306.5 162.942C305.948 164.011 305.637 165.188 305.589 166.39C305.541 167.592 305.757 168.79 306.223 169.9C306.688 171.009 307.391 172.003 308.282 172.812C309.172 173.62 310.23 174.224 311.379 174.579Z" fill="#A0616A"/>
<path d="M196.593 264.948L186.161 264.785L187.416 300.342H196.592L196.593 264.948Z" fill="#A0616A"/>
<path d="M198.932 297.346L180.861 297.345H180.86C177.806 297.346 174.877 298.559 172.717 300.719C170.558 302.878 169.344 305.807 169.344 308.862V309.236L198.932 309.237L198.932 297.346Z" fill="#2F2E41"/>
<path d="M265.666 255.518L254.27 262.834L277.066 290.259L284.788 285.301L265.666 255.518Z" fill="#A0616A"/>
<path d="M285.139 281.516L269.932 291.279L269.931 291.279C267.361 292.929 265.552 295.533 264.902 298.517C264.251 301.501 264.813 304.622 266.463 307.192L266.665 307.507L291.563 291.522L285.139 281.516Z" fill="#2F2E41"/>
<path d="M269.726 146.941C269.726 146.941 244.405 62.8411 236.268 61.7046C228.13 60.5681 215.019 83.2837 215.019 83.2837C198.02 104.973 180.491 175.23 180.491 175.23C180.491 175.23 209.712 177.058 231.073 188.423C252.434 199.788 277.643 187.848 277.643 187.848L269.726 146.941Z" fill="#3F3D56"/>
<path opacity="0.1" d="M269.726 146.941C269.726 146.941 244.405 62.8411 236.268 61.7046C228.13 60.5681 218.349 83.5143 218.349 83.5143C209.878 118.526 180.491 175.23 180.491 175.23C180.491 175.23 209.712 177.058 231.073 188.423C252.434 199.788 277.643 187.848 277.643 187.848L269.726 146.941Z" fill="black"/>
<path d="M248.952 121.779V164.039L253.926 225.255L278.773 271.561L266.914 280.032L233.032 235.985L219.63 192.249L198.584 289.067L182.773 287.938L193.754 153.701L214.592 115.916L248.952 121.779Z" fill="#2F2E41"/>
<path d="M223.422 80.9043C215.516 88.8102 222.858 97.2808 222.858 97.2808L213.822 117.61L249.399 127.21L261.831 71.6554L253.361 62.6201C236.42 62.0554 236.41 61.7043 236.41 61.7043C233.442 64.6091 223.422 80.9043 223.422 80.9043Z" fill="#FF8900"/>
<path d="M263.461 66.0448C266.402 68.2078 268.465 71.3583 269.271 74.9188C270.078 78.4793 269.574 82.2113 267.853 85.4306C263.777 93.211 259.393 105.263 261.653 118.494C265.744 142.439 278.858 160.631 286.163 166.474C288.706 168.507 288.794 171.469 288.421 173.596C287.378 179.537 281.618 186.279 277.634 187.63C277.366 187.719 277.084 187.763 276.802 187.761C270.329 187.763 254.408 167.149 236.112 126.88C224.717 101.801 232.987 81.6922 241.931 69.2392C243.105 67.6098 244.591 66.2295 246.302 65.1783C248.013 64.1272 249.916 63.426 251.9 63.1154C253.885 62.8049 255.911 62.8911 257.861 63.369C259.812 63.847 261.648 64.7073 263.264 65.9L263.461 66.0448Z" fill="#3F3D56"/>
<path d="M246.584 90.2904L297.964 157.704L311.517 152.057L262.952 70.175L246.584 90.2904Z" fill="#3F3D56"/>
<path d="M231.688 46.2438C227.724 38.9918 230.389 29.8992 237.641 25.9349C244.893 21.9706 253.986 24.6358 257.95 31.8878C261.914 39.1398 259.249 48.2324 251.997 52.1967C244.745 56.161 235.653 53.4958 231.688 46.2438Z" fill="#A0616A"/>
<path d="M480 309.56C480 309.41 479.941 309.266 479.835 309.16C479.729 309.054 479.585 308.995 479.435 308.995H0.564697C0.414917 308.995 0.27124 309.054 0.165344 309.16C0.0594482 309.266 -3.05176e-05 309.41 -3.05176e-05 309.56C-3.05176e-05 309.709 0.0594482 309.853 0.165344 309.959C0.27124 310.065 0.414917 310.124 0.564697 310.124H479.435C479.585 310.124 479.729 310.065 479.835 309.959C479.941 309.853 480 309.709 480 309.56Z" fill="#00D084"/>
<path d="M258.813 44.7068L256.71 43.9553C255.536 43.5293 254.52 42.7548 253.798 41.7354C253.076 40.7161 252.682 39.5004 252.669 38.2512L249.951 41.4384L249.853 41.4534C244.528 42.2711 239.369 40.8795 234.083 37.2015C232.573 36.1431 231.129 34.9937 229.759 33.7595L229.657 33.6694L229.671 33.5347C230.101 29.2267 231.661 25.8316 234.063 23.9748C234.982 23.2789 236.038 22.7852 237.162 22.5259C238.285 22.2667 239.451 22.2479 240.582 22.4706C240.666 22.4633 240.748 22.4349 240.818 22.388C240.851 22.3715 240.884 22.3552 240.917 22.34L240.92 22.318L241.083 22.2727C241.431 22.1758 241.785 22.0863 242.137 22.0093C244.896 21.4465 247.759 21.674 250.395 22.6656C253.031 23.6572 255.334 25.3727 257.039 27.6149C260.416 32.149 261.167 38.9228 258.909 44.4714L258.813 44.7068Z" fill="#2F2E41"/>
<path d="M284.52 60.5484C280.457 57.4928 287.602 50.1213 287.28 45.047C286.958 39.9728 278.937 36.9956 279.256 31.9211C279.575 26.8465 279.206 21.4942 276.56 17.153C274.869 14.3789 272.076 12.0686 268.837 11.8297C267.741 11.7489 266.64 11.9054 265.61 12.2883C264.58 12.6713 263.644 13.2719 262.867 14.0492C262.09 14.8264 261.489 15.7621 261.106 16.7924C260.723 17.8228 260.566 18.9236 260.647 20.02C259.958 18.5793 257.561 18.4591 256.731 19.8236C255.993 21.0366 256.868 22.8063 258.192 23.1497C259.581 25.6207 261.203 28.2681 263.884 29.1743C264.306 29.3497 264.762 29.4269 265.218 29.4002C265.674 29.3734 266.118 29.2434 266.516 29.0198C267.27 28.5074 267.532 27.2712 266.842 26.6754C270.071 28.6392 271.464 32.7283 271.351 36.5063C271.238 40.2842 269.893 43.8977 268.796 47.5149C267.7 51.132 266.837 54.9865 267.703 58.6656C268.726 63.0124 272.174 66.589 276.318 68.2521C280.461 69.9152 285.197 69.7823 289.439 68.391C293.682 66.9996 297.461 64.4173 300.711 61.3544C295.59 63.8235 289.062 63.9654 284.52 60.5484Z" fill="#2F2E41"/>
<path d="M258.318 44.2483C258.318 44.2483 256.9 29.1161 240.851 22.9525C240.833 22.9431 240.775 22.9075 240.7 22.8564C240.655 22.8166 240.598 22.7748 240.541 22.733C240.746 22.6586 240.943 22.5958 241.147 22.5338L241.149 22.5338L241.151 22.5328L241.153 22.531L241.154 22.5286C241.342 22.4064 241.529 22.2841 241.722 22.1691L242.194 22.2685C242.194 22.2685 259.316 22.4598 258.318 44.2483Z" fill="#00D084"/>
</g>
<defs>
<clipPath id="clip0_9_226">
<rect width="480" height="310" fill="white" transform="matrix(-1 0 0 1 480 0)"/>
</clipPath>
</defs>
</svg>
