<svg width="438" height="314" viewBox="0 0 438 314" fill="none" xmlns="http://www.w3.org/2000/svg">
<g clip-path="url(#clip0_9_2)">
<path d="M354.468 199.797C354.859 199.833 355.252 199.748 355.594 199.553C355.936 199.359 356.209 199.064 356.378 198.708C356.546 198.353 356.601 197.954 356.535 197.566C356.47 197.178 356.287 196.82 356.011 196.54C355.971 196.346 355.943 196.206 355.904 196.012C355.923 195.971 355.942 195.93 355.962 195.889C356.4 194.973 357.1 194.208 357.972 193.689C358.844 193.17 359.851 192.92 360.864 192.971C361.878 193.022 362.854 193.371 363.67 193.975C364.486 194.579 365.105 195.411 365.45 196.366C366.828 200.178 368.63 204.015 368.932 207.992C369.065 209.749 368.892 211.517 368.421 213.215C372.437 205.43 374.732 196.873 375.152 188.123C375.255 185.927 375.235 183.728 375.092 181.534C374.974 179.736 374.777 177.947 374.501 176.166C372.992 166.507 369.214 157.343 363.478 149.428C360.604 147.682 358.335 145.096 356.976 142.02C356.483 140.914 356.153 139.742 355.996 138.541C356.326 138.601 356.663 138.644 356.994 138.681C357.098 138.691 357.207 138.702 357.31 138.712L357.349 138.716C357.714 138.749 358.08 138.676 358.405 138.506C358.729 138.336 358.997 138.076 359.177 137.756C359.357 137.437 359.441 137.073 359.419 136.707C359.397 136.341 359.269 135.99 359.052 135.695C358.916 135.512 358.781 135.328 358.645 135.145C358.44 134.862 358.229 134.584 358.023 134.301C357.999 134.274 357.977 134.246 357.956 134.216C357.72 133.894 357.483 133.577 357.247 133.254C357.738 132.565 358.381 131.998 359.127 131.598C361.709 130.243 365.13 131.424 366.84 133.783C368.555 136.142 368.75 139.349 367.985 142.161C367.251 144.55 366.115 146.796 364.627 148.804C364.755 148.985 364.889 149.16 365.017 149.341C367.36 152.662 369.371 156.205 371.023 159.919C370.77 155.833 371.49 151.745 373.124 147.991C374.765 144.499 377.671 141.629 380.25 138.663C383.348 135.102 389.273 136.995 389.57 141.707C389.573 141.752 389.576 141.798 389.579 141.843C389.207 142.031 388.843 142.231 388.486 142.444C388.037 142.715 387.68 143.115 387.463 143.592C387.245 144.069 387.176 144.6 387.266 145.117C387.355 145.633 387.598 146.111 387.964 146.487C388.329 146.863 388.8 147.119 389.313 147.223L389.366 147.234C389.176 148.532 388.888 149.814 388.504 151.069C387.398 154.57 385.581 157.805 383.166 160.571C380.752 163.336 377.792 165.573 374.473 167.141C374.255 167.24 374.043 167.34 373.825 167.433C375.413 172.704 376.309 178.158 376.491 183.66C376.587 186.905 376.422 190.153 375.995 193.371L376.017 193.258C376.882 189.697 378.949 186.544 381.869 184.331C386.204 181.095 392.161 180.106 396.794 177.559C397.287 177.273 397.851 177.135 398.42 177.16C398.989 177.186 399.539 177.373 400.005 177.7C400.47 178.028 400.833 178.482 401.05 179.008C401.266 179.535 401.328 180.113 401.227 180.674C401.219 180.714 401.211 180.753 401.203 180.793C400.518 181.036 399.85 181.32 399.201 181.646C398.83 181.833 398.466 182.033 398.108 182.246C397.66 182.517 397.303 182.917 397.085 183.394C396.867 183.871 396.799 184.402 396.888 184.919C396.978 185.435 397.221 185.913 397.586 186.289C397.952 186.665 398.422 186.921 398.936 187.025L398.989 187.036C399.027 187.043 399.059 187.05 399.097 187.057C397.822 189.744 396.095 192.191 393.99 194.291C391.392 196.831 388.304 198.814 384.913 200.118C381.522 201.421 377.901 202.019 374.272 201.873L374.266 201.872C373.082 206.108 371.461 210.209 369.429 214.109L354.216 213.401C354.17 213.229 354.129 213.052 354.088 212.881C355.492 213.035 356.909 213.017 358.309 212.826C357.244 211.388 356.181 209.939 355.116 208.502C355.093 208.475 355.07 208.446 355.049 208.416C354.51 207.681 353.965 206.95 353.425 206.215L353.425 206.214C353.496 204.039 353.846 201.882 354.467 199.797L354.468 199.797Z" fill="#00D084"/>
<path d="M47.9526 68.2146C47.5641 68.275 47.1663 68.2145 46.8133 68.0413C46.4602 67.8681 46.169 67.5905 45.9789 67.2461C45.7889 66.9017 45.7093 66.5073 45.7509 66.1161C45.7924 65.725 45.9532 65.3561 46.2114 65.0594C46.2387 64.8631 46.2583 64.7221 46.2856 64.5257C46.2638 64.486 46.242 64.4463 46.2201 64.4066C45.7256 63.5199 44.9802 62.7992 44.0775 62.3349C43.1748 61.8706 42.1551 61.6834 41.1464 61.797C40.1377 61.9105 39.1851 62.3197 38.4081 62.973C37.6312 63.6264 37.0646 64.4948 36.7795 65.4693C35.6394 69.3587 34.0781 73.3004 34.0218 77.2878C33.9976 79.0502 34.2793 80.8035 34.8543 82.4696C30.3654 74.948 27.5459 66.5489 26.5868 57.8417C26.3484 55.6565 26.2323 53.4597 26.2391 51.2615C26.2463 49.4593 26.3326 47.6613 26.4981 45.8675C27.4072 36.1333 30.6117 26.7537 35.8485 18.499C38.6086 16.5782 40.7139 13.8573 41.8805 10.7029C42.304 9.56853 42.5611 8.37882 42.6439 7.17076C42.3176 7.2502 41.9841 7.31394 41.6555 7.37164C41.553 7.38826 41.4451 7.40552 41.3425 7.42218L41.3038 7.42816C40.9418 7.48407 40.5714 7.43412 40.2371 7.28432C39.9028 7.13452 39.6189 6.89127 39.4196 6.58384C39.2203 6.27641 39.1141 5.91791 39.1138 5.5515C39.1134 5.1851 39.219 4.82641 39.4177 4.51861C39.5415 4.32712 39.6654 4.13572 39.7894 3.94439C39.9769 3.64936 40.1705 3.35918 40.358 3.0642C40.3802 3.03569 40.4009 3.00593 40.4197 2.97506C40.6357 2.6385 40.8522 2.3074 41.0682 1.97084C40.5357 1.31303 39.8584 0.787151 39.0892 0.434213C36.4283 -0.759145 33.0875 0.631347 31.5266 3.09139C29.9603 5.55198 29.9637 8.76457 30.9007 11.524C31.7813 13.863 33.0536 16.0349 34.6629 17.9469C34.5461 18.1353 34.4233 18.319 34.3065 18.5074C32.1735 21.9669 30.3845 25.6272 28.9653 29.4358C28.966 25.342 27.995 21.3065 26.1323 17.6613C24.2782 14.2769 21.2007 11.5915 18.4432 8.79137C15.1311 5.42795 9.33448 7.68377 9.32875 12.4049C9.3287 12.4506 9.32876 12.4963 9.32894 12.5419C9.71113 12.7059 10.0871 12.8833 10.4567 13.0739C10.9215 13.3163 11.3022 13.6935 11.549 14.156C11.7957 14.6186 11.8971 15.1449 11.8397 15.666C11.7823 16.1871 11.5689 16.6788 11.2274 17.0765C10.8859 17.4742 10.4323 17.7595 9.92597 17.895L9.87412 17.9088C10.1436 19.193 10.5102 20.4549 10.9709 21.6835C12.2912 25.1096 14.3049 28.2259 16.8857 30.837C19.4665 33.4482 22.5587 35.4979 25.9686 36.8576C26.192 36.9432 26.41 37.0293 26.6329 37.1094C25.3736 42.4679 24.8162 47.9674 24.9747 53.4696C25.0786 56.7147 25.4447 59.946 26.0694 63.132L26.0407 63.0198C24.9572 59.5193 22.6992 56.5001 19.648 54.472C15.1217 51.5099 9.11473 50.8914 4.33375 48.6348C3.82409 48.3806 3.25241 48.2776 2.68613 48.3378C2.11986 48.398 1.58261 48.619 1.13775 48.9746C0.692892 49.3302 0.358976 49.8057 0.17539 50.3449C-0.00819568 50.8841 -0.0337973 51.4646 0.101608 52.0179C0.111958 52.0571 0.122416 52.0964 0.132975 52.1357C0.830794 52.3352 1.5155 52.578 2.18314 52.8627C2.56532 53.0268 2.94126 53.2041 3.31094 53.3947C3.77568 53.6372 4.15638 54.0143 4.40315 54.4769C4.64992 54.9394 4.75125 55.4657 4.69388 55.9869C4.63651 56.508 4.4231 56.9996 4.08162 57.3974C3.74013 57.7951 3.2865 58.0804 2.78016 58.2158L2.72827 58.2297C2.69088 58.2392 2.6589 58.2483 2.62158 58.2578C4.05984 60.8605 5.93524 63.1961 8.16564 65.1623C10.915 67.537 14.1204 69.325 17.5851 70.4166C21.0499 71.5082 24.701 71.8804 28.3146 71.5104L28.3201 71.5098C29.7637 75.6641 31.635 79.6571 33.9039 83.4244L49.0435 81.7772C49.0795 81.603 49.1094 81.424 49.14 81.2504C47.7482 81.491 46.3322 81.5602 44.9236 81.4565C45.897 79.9556 46.8691 78.4438 47.8425 76.9429C47.8647 76.9144 47.8853 76.8847 47.9042 76.8538C48.3972 76.0862 48.8963 75.3234 49.3893 74.5559L49.3895 74.5549C49.1847 72.3887 48.7019 70.2578 47.9531 68.2149L47.9526 68.2146Z" fill="#00D084"/>
<path d="M257.119 62.6025C257.869 62.8087 258.564 63.1768 259.156 63.6808C259.747 64.1848 260.222 64.8125 260.545 65.5195C260.868 66.2266 261.032 66.996 261.025 67.7734C261.019 68.5508 260.842 69.3173 260.508 70.019L268.632 79.054L264.347 85.3317L253.053 72.4113C251.912 71.771 251.045 70.7341 250.617 69.4972C250.189 68.2603 250.23 66.9094 250.731 65.7003C251.232 64.4912 252.159 63.5081 253.337 62.9371C254.514 62.3662 255.86 62.2471 257.119 62.6025Z" fill="#A0616A"/>
<path d="M333.178 84.7881C332.446 83.5957 331.485 82.5596 330.352 81.7393C329.218 80.919 327.934 80.3306 326.572 80.0079C325.211 79.6852 323.799 79.6345 322.418 79.8588C321.037 80.083 319.714 80.5778 318.524 81.3146L291.805 97.8675L262.984 73.3611L255.813 80.0395L287.653 121.361L329.035 99.7821C328.069 100.286 334.345 86.688 333.178 84.7881Z" fill="#FF8900"/>
<path d="M280.247 139.827C280.25 153.027 277.653 166.098 272.604 178.293C267.555 190.489 260.154 201.57 250.823 210.903C241.492 220.237 230.414 227.64 218.222 232.69C206.03 237.74 192.962 240.338 179.766 240.336C124.273 240.336 79.2856 195.336 79.2856 139.827C79.276 129.03 81.0064 118.302 84.4102 108.055C91.0927 88.0441 103.895 70.6405 121.007 58.3056C138.119 45.9707 158.674 39.3286 179.766 39.3185C197.957 39.3122 215.808 44.2472 231.414 53.5967C247.019 62.9461 259.794 76.3591 268.374 92.4038C270.501 96.3624 272.357 100.461 273.928 104.671C274.146 105.258 274.358 105.844 274.564 106.436V106.442C275.485 109.044 276.297 111.694 276.998 114.393C279.162 122.697 280.254 131.245 280.247 139.827Z" fill="#3F3D56"/>
<path d="M168.773 72.0152C164.257 69.5726 159.244 68.1938 154.115 67.9839C148.985 67.774 143.876 68.7385 139.176 70.804C135.038 72.6054 130.68 75.837 129.3 81.6727C134.883 78.3767 142.111 83.5843 143.547 91.9384L143.212 92.0309C142.453 97.8173 144.147 104.117 147.427 107.705C147.857 103.978 150.307 101.442 152.717 99.8572C155.126 98.2728 157.792 97.1218 159.631 94.3983C161.812 91.1696 162.365 86.4508 163.231 82.1461C164.098 77.8414 165.741 73.2147 168.773 72.0152Z" fill="white"/>
<path d="M137.52 121.255C135.973 123.578 133.908 125.036 132.055 126.85C130.207 128.671 128.449 131.127 128.08 134.282C127.846 136.304 128.209 138.359 128.158 140.402C128.108 142.446 127.427 144.746 126.037 145.255C123.843 146.047 122.169 141.971 119.913 141.687C118.121 141.463 116.508 144.283 117.027 146.729C117.546 149.174 119.986 150.258 121.387 148.661C122.654 150.788 121.761 154.647 119.858 155.3C119.657 156.64 119.456 157.975 119.26 159.315C114.448 155.948 109.586 152.525 105.494 147.594C100.944 142.157 98.121 135.484 97.3889 128.431C96.8587 122.763 97.6457 116.28 95.0444 111.919C92.9622 108.429 89.3895 107.659 86.1741 107.877C85.588 107.916 84.9963 107.983 84.4102 108.055C86.3064 102.358 88.7148 96.8451 91.6057 91.583C92.2599 91.3021 92.8678 90.9237 93.4087 90.4607C96.4009 87.9201 97.7295 82.7773 100.158 79.2204C100.314 78.9915 100.476 78.7681 100.643 78.5504C103.128 75.3062 106.455 73.6366 109.67 72.0843C116.787 68.6279 124.111 65.1269 131.625 65.6071L129.487 65.8137C126.992 72.8046 124.495 79.7956 121.996 86.7865C121.616 87.8586 121.233 88.9325 120.846 90.0084C119.428 93.984 117.965 98.2166 118.183 102.667C118.311 105.302 119.227 108.117 120.968 109.021C122.593 109.859 124.368 108.831 125.937 107.815C126.601 107.391 127.26 106.966 127.924 106.536C130.308 105.001 132.948 103.426 135.466 104.454C137.771 105.392 139.474 108.524 139.797 111.902C140.094 115.186 139.293 118.476 137.52 121.255Z" fill="white"/>
<path d="M151.696 168.984C144.735 164.697 137.773 160.409 130.811 156.122L130.93 155.817C126.601 157.466 124.804 165.162 125.52 171.456C126.235 177.75 128.66 183.376 129.886 189.509C131.538 197.901 130.914 206.582 128.08 214.652C137.234 204.378 145.335 193.211 152.262 181.32C153.23 179.822 153.967 178.186 154.45 176.469C154.892 174.641 154.824 172.444 153.938 170.979C153.368 170.138 152.598 169.452 151.696 168.984Z" fill="white"/>
<path d="M124.221 90.981C123.482 92.6435 123.198 94.8604 123.868 96.5806C124.553 98.3375 126.002 99.1314 127.335 99.7925L131.182 101.7C132.462 102.334 133.841 102.975 135.146 102.453C136.719 101.823 137.81 99.3559 137.528 97.0652C137.227 94.6277 135.691 92.9509 134.271 91.5231C132.283 89.5249 130.294 87.5267 128.306 85.5286L127.186 86.9012C125.974 88.0836 124.972 89.4631 124.221 90.981Z" fill="white"/>
<path d="M259.626 117.04C261.357 117.447 263.087 117.855 264.818 118.262C264.516 124.109 261.619 129.519 257.734 131.479C256.115 132.295 254.312 132.596 252.972 134.12C251.761 135.505 251.147 137.661 250.583 139.721C249.595 143.317 248.607 146.913 247.619 150.509C246.558 154.384 245.196 158.689 242.438 160.085C240.072 161.286 237.364 159.817 235.544 157.355C233.725 154.892 232.614 151.581 231.536 148.354C231.603 151.871 229.968 155.322 227.651 156.545C225.329 157.768 222.504 156.662 220.952 153.932C219.836 151.972 219.373 149.387 218.278 147.399C217.184 145.411 214.89 144.272 213.695 146.137C212.908 147.376 213.009 149.275 212.618 150.85C212.009 153.295 210.167 154.831 208.342 154.965C206.522 155.099 204.747 154.049 203.223 152.625C200.08 149.677 197.764 144.998 196.865 139.799C196.469 137.482 196.357 134.958 197.044 132.786C197.73 130.614 199.388 128.939 201.035 129.352C202.118 127.062 199.98 124.025 198.054 124.293C196.122 124.561 194.61 126.633 193.024 128.224C191.444 129.815 189.234 130.971 187.643 129.391C187.654 130.859 186.459 131.831 185.427 131.708C184.4 131.591 183.484 130.765 182.541 130.178C178.896 127.906 174.268 129.413 171.678 133.713C173.297 126.822 175.669 118.916 180.643 117.296C182.675 116.632 184.891 117.179 186.811 116.029C190.211 113.991 190.897 106.291 187.961 103.114C188.335 106.118 188.263 109.624 186.677 111.679C185.092 113.734 181.765 112.394 181.966 109.356C181.508 111.45 179.23 111.768 178.181 110.16C177.126 108.552 177.215 105.922 177.963 104.001C178.711 102.08 179.984 100.701 181.218 99.3779C183.869 96.5358 186.56 93.6601 189.63 91.8732C192.706 90.0864 196.256 89.4834 199.338 91.2591C200.962 92.1971 202.391 93.7606 204.049 94.587C205.707 95.419 207.812 95.3129 208.911 93.3697C210.145 91.2032 209.564 87.9869 210.022 85.2788C210.843 80.4935 215.627 78.2544 218.278 81.4147C216.297 80.9067 214.248 83.2518 214.002 86.0941C213.751 88.9362 215.186 91.8063 217.106 92.6662C220.333 94.0956 223.492 90.4996 225.932 87.1717C228.477 83.6874 231.026 80.205 233.579 76.7244C233.987 76.1318 234.445 75.5751 234.947 75.0604C235.747 74.2809 236.812 73.8345 237.929 73.8116C239.045 73.7888 240.128 74.1913 240.959 74.9376C243.538 77.0427 244.75 81.359 246.865 84.3296C249.935 88.6458 254.53 89.6956 258.806 90.5332C261.993 91.153 265.182 91.7765 268.374 92.4037C270.501 96.3623 272.357 100.461 273.928 104.671C268.524 106.966 263.539 111.26 259.626 117.04Z" fill="white"/>
<path d="M269.931 184.224C267.539 189.082 264.758 193.737 261.613 198.144C259.604 197.285 257.444 198.82 255.562 200.261C253.597 201.768 251.236 203.237 249.221 201.863C247.161 200.456 246.497 196.52 247.15 193.398C247.803 190.282 249.433 187.803 251.013 185.447C252.687 182.945 254.479 180.349 256.807 179.377C259.141 178.406 262.138 179.779 262.819 183.096L264.472 183.04C263.545 181.767 264.031 179.132 265.275 178.668C266.71 178.127 267.955 180.098 268.803 181.84C269.183 182.627 269.568 183.42 269.931 184.224Z" fill="white"/>
<path d="M206.647 160.638C203.096 160.862 200.282 156.488 198.413 152.186C196.544 147.883 194.838 142.963 191.633 140.773C189.802 139.522 187.715 139.35 185.728 138.744C183.742 138.138 181.663 136.883 180.714 134.328L178.461 133.417C175.486 135.091 172.471 136.795 169.907 139.518C167.032 142.573 165.241 146.49 164.81 150.664C164.38 155.175 165.969 160.205 168.939 161.899C171.285 163.238 174.017 162.394 176.393 163.62C179.363 165.151 181.126 169.6 181.793 173.993C182.461 178.385 182.291 182.95 182.769 187.392C183.246 191.834 184.562 196.457 187.285 198.733C190.693 201.582 195.694 199.215 197.223 194.029C197.973 191.486 197.947 188.615 198.508 185.975C199.495 181.325 202.161 177.875 204.275 174.06C206.389 170.246 208.053 165.065 206.647 160.638Z" fill="white"/>
<path d="M171.552 114.945C171.883 115.25 172.192 115.578 172.477 115.927C172.771 116.435 172.922 117.014 172.912 117.601C172.902 118.188 172.732 118.762 172.42 119.259C172.848 119.235 173.266 119.122 173.648 118.928C174.03 118.734 174.368 118.462 174.639 118.131C175.288 117.393 175.858 116.589 176.341 115.734C176.703 115.143 177.089 114.344 176.843 113.642C176.675 113.163 176.278 112.959 176 112.599C175.559 112.028 175.45 111.121 175.222 110.337C174.729 108.645 173.548 107.4 172.267 107.222L172.445 107.256C171.909 107.44 171.536 108.29 171.654 109.055C171.762 109.752 172.209 110.33 172.165 111.041C172.101 112.063 171.08 112.543 171.017 113.565C171.007 114.077 171.199 114.573 171.552 114.945Z" fill="white"/>
<path d="M165.467 97.5795C165.472 97.578 165.478 97.5778 165.483 97.5764C165.592 97.4768 165.693 97.3689 165.786 97.2535L165.467 97.5795Z" fill="#E6E6E6"/>
<path d="M166.532 102.376C167.317 101.871 167.756 100.474 167.496 99.3051C167.238 98.1431 166.325 97.3619 165.483 97.5764C165.238 97.8242 164.935 98.0058 164.601 98.1041C164.268 98.2024 163.914 98.2142 163.575 98.1384C163.054 98.0043 162.482 97.6589 162.031 98.0514C161.772 98.3444 161.591 98.6976 161.505 99.0786C161.337 99.5919 161.17 100.105 161.003 100.618C160.924 100.802 160.903 101.006 160.944 101.202C160.976 101.281 161.028 101.349 161.094 101.402C161.16 101.455 161.239 101.49 161.323 101.503C162.326 101.799 163.329 102.095 164.332 102.391C165.063 102.606 165.852 102.814 166.532 102.376Z" fill="white"/>
<path d="M242.251 168.6C241.787 167.84 241.324 167.081 240.86 166.322C240.405 165.443 239.782 164.661 239.027 164.02C238.861 163.881 238.669 163.776 238.462 163.713C238.255 163.649 238.038 163.627 237.822 163.649C237.607 163.67 237.398 163.735 237.208 163.838C237.018 163.942 236.85 164.082 236.715 164.252L236.771 164.685C237.828 166.011 238.946 167.485 239.214 169.453C239.32 170.229 239.283 171.032 239.376 171.811C239.469 172.591 239.732 173.399 240.235 173.735C240.965 174.223 241.822 173.504 242.342 172.626C242.806 171.905 243.015 171.049 242.933 170.195C242.818 169.622 242.585 169.079 242.251 168.6Z" fill="white"/>
<path d="M262.885 139.602C263.019 138.722 263.153 137.843 263.287 136.963C263.505 135.997 263.532 134.998 263.367 134.021C263.33 133.808 263.25 133.604 263.133 133.422C263.015 133.24 262.863 133.084 262.684 132.961C262.506 132.839 262.304 132.754 262.092 132.711C261.88 132.667 261.661 132.667 261.449 132.709L261.213 133.077C261.168 134.773 261.075 136.62 260.013 138.299C259.594 138.961 259.049 139.551 258.618 140.207C258.187 140.863 257.868 141.651 258.037 142.232C258.281 143.076 259.4 143.077 260.363 142.741C261.182 142.488 261.893 141.967 262.38 141.262C262.661 140.749 262.832 140.184 262.885 139.602Z" fill="#E6E6E6"/>
<path d="M249.524 169.588C249.751 168.936 249.423 168.188 249.354 167.468C249.321 166.537 249.568 165.618 250.062 164.83C250.553 164.086 250.926 163.269 251.165 162.411C251.266 162.019 251.248 161.607 251.112 161.226C250.959 160.881 250.587 160.724 250.374 160.997L250.83 161.291C250.214 161.181 249.581 161.211 248.979 161.38C248.635 161.512 248.328 161.725 248.084 162C247.839 162.276 247.665 162.606 247.575 162.963C247.5 163.52 247.377 164.069 247.207 164.605C246.935 165.164 246.408 165.351 246.077 165.842C245.851 166.277 245.737 166.762 245.745 167.252C245.754 167.743 245.884 168.224 246.124 168.651C246.539 169.351 247.2 169.871 247.978 170.11C248.535 170.31 249.269 170.321 249.524 169.588Z" fill="white"/>
<path d="M262.476 173.497C262.678 174.021 262.947 174.516 263.279 174.97C263.899 175.595 264.741 175.211 265.494 175.059C266.176 174.951 266.875 175.03 267.517 175.288C268.158 175.545 268.718 175.971 269.137 176.521C268.845 175.065 268.209 173.701 267.281 172.543C266.352 171.385 265.16 170.467 263.804 169.865C262.03 169.142 260.163 169.072 258.318 169.007L258 169.089C258.812 171.452 261.36 171.399 262.476 173.497Z" fill="white"/>
<path d="M207.619 178.331L207.624 178.341C207.655 178.282 207.685 178.222 207.716 178.163L207.619 178.331Z" fill="#E6E6E6"/>
<path d="M205.654 182.135C205.225 182.913 204.857 183.723 204.552 184.557C204.147 185.909 203.88 187.297 203.753 188.702C203.653 189.501 203.622 190.521 204.122 190.91C204.266 191.005 204.44 191.045 204.61 191.022C204.781 190.999 204.938 190.914 205.051 190.784C205.329 190.49 205.556 190.152 205.724 189.783C206.707 188.089 207.471 186.277 207.996 184.39C208.475 182.402 208.47 180.062 207.624 178.341C206.967 179.606 206.311 180.87 205.654 182.135Z" fill="white"/>
<path d="M186.699 80.7801C187.011 81.0853 187.405 81.2924 187.834 81.376C188.262 81.4597 188.705 81.4161 189.109 81.2508C189.946 80.8849 190.713 80.378 191.378 79.7519C191.928 79.3446 192.395 78.8352 192.753 78.2514C192.95 77.9026 193.076 77.5182 193.125 77.1204C193.173 76.7225 193.142 76.3191 193.034 75.9332C192.724 75.0244 191.935 74.7197 191.24 74.5135C190.127 74.1832 189.013 73.853 187.9 73.5228L188.705 72.7967C187.877 72.3519 186.96 73.1775 186.442 74.1995C186.11 74.8668 185.879 75.5797 185.755 76.3149C185.478 77.919 185.749 79.8293 186.699 80.7801Z" fill="#E6E6E6"/>
<path d="M206.354 74.1799C206.667 74.5259 207.101 74.7395 207.567 74.7774C208.032 74.8153 208.494 74.6746 208.86 74.3839C209.175 74.1475 209.436 73.8474 209.627 73.5033C209.818 73.1592 209.935 72.7786 209.969 72.3865C210.048 71.5105 209.615 70.537 208.996 70.4613L209.138 69.6412C207.946 69.426 206.48 69.3829 205.842 70.83C205.627 71.3843 205.561 71.9854 205.65 72.5733C205.74 73.1611 205.983 73.7151 206.354 74.1799Z" fill="#E6E6E6"/>
<path d="M203.728 30.5676C196.744 29.7796 189.733 31.7989 184.238 36.1814C178.743 40.5639 175.213 46.9505 174.425 53.9362C172.785 68.4833 180.446 100.073 194.415 113.149C200.992 88.0956 224.04 73.235 227.09 59.8785C230.349 45.6067 218.271 32.2085 203.728 30.5676Z" fill="#7E71C2"/>
<path d="M198.898 62.9073C203.671 62.9073 207.54 59.0369 207.54 54.2625C207.54 49.4881 203.671 45.6177 198.898 45.6177C194.125 45.6177 190.255 49.4881 190.255 54.2625C190.255 59.0369 194.125 62.9073 198.898 62.9073Z" fill="white"/>
<path d="M189.811 125.614C192.937 125.614 195.471 123.079 195.471 119.952C195.471 116.825 192.937 114.29 189.811 114.29C186.684 114.29 184.15 116.825 184.15 119.952C184.15 123.079 186.684 125.614 189.811 125.614Z" fill="#7E71C2"/>
<path opacity="0.2" d="M206.049 48.069C207.021 48.6537 207.869 49.4243 208.544 50.3369C209.22 51.2495 209.708 52.2861 209.983 53.3876C210.257 54.4891 210.312 55.6339 210.145 56.7567C209.977 57.8794 209.59 58.9581 209.005 59.9312C208.42 60.9043 207.65 61.7527 206.738 62.4279C205.825 63.1031 204.789 63.592 203.688 63.8666C201.464 64.4212 199.111 64.0694 197.146 62.8885C199.149 63.3342 201.246 63.0523 203.06 62.0933C204.874 61.1342 206.288 59.5605 207.048 57.654C207.809 55.7474 207.866 53.6324 207.21 51.6875C206.554 49.7426 205.227 48.0948 203.467 47.0389C204.378 47.2407 205.249 47.5886 206.049 48.069Z" fill="#231F20"/>
<path opacity="0.2" d="M227.124 59.9065C224.074 73.263 201.026 88.1235 194.449 113.177C193.135 111.936 191.915 110.599 190.799 109.177C198.19 85.6271 219.803 71.3173 222.75 58.4126C225.387 46.8626 217.979 35.8859 207.349 31.249C220.216 34.4844 230.11 46.8277 227.124 59.9065Z" fill="#231F20"/>
<path d="M122.74 64.2982C117.496 63.7064 112.231 65.2229 108.104 68.514C103.977 71.805 101.326 76.6012 100.735 81.8472C99.5028 92.7716 105.257 116.494 115.747 126.314C120.686 107.5 137.994 96.3399 140.284 86.3097C142.732 75.592 133.662 65.5304 122.74 64.2982Z" fill="#7E71C2"/>
<path d="M119.113 88.5842C122.697 88.5842 125.603 85.6776 125.603 82.0922C125.603 78.5069 122.697 75.6003 119.113 75.6003C115.529 75.6003 112.623 78.5069 112.623 82.0922C112.623 85.6776 115.529 88.5842 119.113 88.5842Z" fill="white"/>
<path d="M112.289 135.675C114.637 135.675 116.54 133.771 116.54 131.423C116.54 129.074 114.637 127.171 112.289 127.171C109.941 127.171 108.038 129.074 108.038 131.423C108.038 133.771 109.941 135.675 112.289 135.675Z" fill="#7E71C2"/>
<path opacity="0.2" d="M124.483 77.4411C125.213 77.8802 125.85 78.4589 126.357 79.1442C126.864 79.8295 127.231 80.608 127.437 81.4352C127.644 82.2624 127.685 83.1221 127.559 83.9653C127.433 84.8084 127.142 85.6185 126.703 86.3492C126.264 87.08 125.686 87.7171 125 88.2241C124.315 88.7312 123.537 89.0984 122.71 89.3046C121.883 89.5108 121.024 89.5521 120.181 89.426C119.338 89.3 118.528 89.0091 117.797 88.57C119.302 88.9048 120.876 88.6931 122.238 87.9728C123.601 87.2526 124.663 86.0708 125.234 84.6391C125.805 83.2073 125.848 81.619 125.355 80.1585C124.862 78.6979 123.866 77.4605 122.544 76.6675C123.228 76.8191 123.883 77.0803 124.483 77.4411Z" fill="#231F20"/>
<path opacity="0.2" d="M140.31 86.3307C138.02 96.361 120.711 107.521 115.772 126.335C114.786 125.403 113.869 124.399 113.031 123.331C118.581 105.646 134.812 94.8998 137.025 85.2088C139.005 76.5351 133.442 68.292 125.46 64.8099C135.122 67.2396 142.552 76.509 140.31 86.3307Z" fill="#231F20"/>
<path d="M325.932 299.471H318.806L315.416 271.978L325.933 271.978L325.932 299.471Z" fill="#A0616A"/>
<path d="M329.765 313.005H324.709L323.806 308.23L321.495 313.005H308.084C307.441 313.005 306.815 312.8 306.297 312.419C305.779 312.038 305.397 311.501 305.206 310.887C305.014 310.273 305.024 309.614 305.234 309.007C305.444 308.399 305.842 307.874 306.371 307.508L317.08 300.11V295.282L328.345 295.955L329.765 313.005Z" fill="#2F2E41"/>
<path d="M298.331 299.471H291.206L287.815 271.978L298.333 271.978L298.331 299.471Z" fill="#A0616A"/>
<path d="M302.165 313.005H297.108L296.206 308.23L293.894 313.005H280.483C279.841 313.005 279.215 312.8 278.697 312.419C278.179 312.038 277.796 311.501 277.605 310.887C277.414 310.273 277.424 309.614 277.633 309.007C277.843 308.399 278.241 307.874 278.77 307.508L289.48 300.11V295.282L300.744 295.955L302.165 313.005Z" fill="#2F2E41"/>
<path d="M271.259 226.882C272.623 228.928 287.458 285.175 287.458 285.175L300.612 286.675L299.051 272.523L296.664 247.479L292.969 230.763C292.969 230.763 306.019 201.054 306.844 198.688L307.431 196.989L311.508 234.003C311.992 235.324 312.203 236.73 312.128 238.136C312.006 240.448 314.324 275.231 314.324 275.231L315.438 287.705L326.709 289.271L331.281 267.688C335.099 260.676 332.911 235.762 331.349 233.443C329.788 231.124 330.408 214.974 330.408 214.974C332.402 214.272 344.292 173.718 338.345 173.957C338.727 171.795 339.027 169.865 339.027 169.865L328.704 161.538L302.869 154.82L296.351 151.69C296.351 151.69 284.71 173.221 284.826 174.292C284.987 175.648 284.676 177.018 283.947 178.172L272.193 217.518C272.193 217.518 269.882 224.816 271.259 226.882Z" fill="#2F2E41"/>
<path d="M336.164 86.0884L332.054 77.3599L318.066 77.8977L313.503 86.9783C313.503 86.9783 300.464 102.557 300.042 107.623C299.511 113.994 303.923 145.219 299.511 143.195C299.511 143.195 289.11 155.406 295.265 155.406C301.419 155.406 329.257 172.886 331.084 174.852C332.91 176.818 341.065 178.092 340.381 173.989C339.697 169.885 336.164 147.69 336.164 147.69L345.728 112.79C348.481 105.256 349.337 96.8039 343.115 91.7425L336.164 86.0884Z" fill="#FF8900"/>
<path d="M284.35 60.3981C282.479 59.6552 280.48 59.2882 278.467 59.318C276.454 59.3479 274.467 59.774 272.619 60.5721C270.771 61.3701 269.098 62.5245 267.696 63.9693C266.293 65.4141 265.189 67.121 264.447 68.9926C261.323 76.8636 260.806 95.66 266.618 105.081C274.092 92.0945 289.213 87.2994 292.942 80.307C296.927 72.8354 292.219 63.5225 284.35 60.3981Z" fill="#7E71C2"/>
<path d="M278.058 77.8917C280.819 77.8917 283.057 75.6528 283.057 72.891C283.057 70.1291 280.819 67.8902 278.058 67.8902C275.297 67.8902 273.058 70.1291 273.058 72.891C273.058 75.6528 275.297 77.8917 278.058 77.8917Z" fill="white"/>
<path d="M263.016 111.454C264.824 111.454 266.29 109.987 266.29 108.178C266.29 106.369 264.824 104.903 263.016 104.903C261.207 104.903 259.741 106.369 259.741 108.178C259.741 109.987 261.207 111.454 263.016 111.454Z" fill="#7E71C2"/>
<path opacity="0.2" d="M282.989 70.5196C283.905 71.4774 284.403 72.7597 284.375 74.0848C284.346 75.4099 283.792 76.6693 282.836 77.5864C281.879 78.5035 280.598 79.0032 279.273 78.9757C277.948 78.9482 276.689 78.3958 275.771 77.4399C276.821 77.9929 278.034 78.1538 279.192 77.894C280.351 77.6342 281.379 76.9705 282.093 76.0217C282.806 75.073 283.159 73.9011 283.088 72.7158C283.017 71.5306 282.527 70.4093 281.705 69.5527C282.182 69.8036 282.616 70.1301 282.989 70.5196Z" fill="#231F20"/>
<path opacity="0.2" d="M292.957 80.3277C289.227 87.3201 274.107 92.1152 266.633 105.101C266.088 104.209 265.61 103.277 265.202 102.314C272.902 90.2909 287.138 85.5854 290.742 78.8295C293.967 72.7828 291.498 65.5308 286.268 61.3283C292.959 65.0883 296.609 73.4807 292.957 80.3277Z" fill="#231F20"/>
<path d="M261.54 107.051C262.301 106.894 263.088 106.906 263.844 107.085C264.6 107.265 265.307 107.609 265.916 108.092C266.525 108.575 267.021 109.186 267.368 109.881C267.716 110.576 267.907 111.34 267.928 112.117L279.269 116.471L278.305 124.011L262.374 117.636C261.067 117.585 259.824 117.055 258.88 116.148C257.937 115.241 257.359 114.019 257.257 112.714C257.154 111.409 257.533 110.112 258.322 109.068C259.112 108.024 260.257 107.307 261.54 107.051Z" fill="#A0616A"/>
<path d="M340.788 91.5131C339.594 90.7839 338.268 90.2976 336.885 90.0823C335.503 89.8669 334.092 89.9267 332.732 90.2581C331.373 90.5895 330.093 91.1861 328.964 92.0137C327.836 92.8412 326.882 93.8835 326.157 95.0806L309.878 121.972L273.07 113.244L269.717 122.453L316.853 144.787L340.726 106.753C344.3 101.728 346.05 94.7263 340.788 91.5131Z" fill="#FF8900"/>
<path d="M341.396 58.5574C341.397 61.1492 340.762 63.7016 339.547 65.9906C338.331 68.2796 336.573 70.2351 334.425 71.6855C332.278 73.1359 329.808 74.0369 327.231 74.3093C324.654 74.5818 322.05 74.2173 319.647 73.248C317.244 72.2787 315.115 70.7342 313.448 68.7499C311.781 66.7657 310.627 64.4025 310.086 61.8678C309.545 59.3331 309.635 56.7043 310.347 54.2123C311.059 51.7203 312.372 49.4412 314.17 47.5751L314.246 47.4992C314.372 47.3661 314.499 47.2331 314.632 47.1064C314.633 47.1064 314.634 47.1063 314.634 47.106C314.635 47.1057 314.636 47.1052 314.637 47.1046C314.637 47.104 314.638 47.1033 314.638 47.1025C314.638 47.1017 314.638 47.1009 314.638 47.1001C314.803 46.9481 314.968 46.7961 315.139 46.6504C317.426 44.6445 320.243 43.3405 323.252 42.8946C326.261 42.4487 329.335 42.8797 332.105 44.136C334.876 45.3923 337.226 47.4208 338.873 49.9785C340.521 52.5361 341.397 55.5147 341.396 58.5574Z" fill="#2F2E41"/>
<path d="M321.667 75.4982C328.998 75.4982 334.941 69.5537 334.941 62.2209C334.941 54.8881 328.998 48.9436 321.667 48.9436C314.336 48.9436 308.393 54.8881 308.393 62.2209C308.393 69.5537 314.336 75.4982 321.667 75.4982Z" fill="#9E616A"/>
<path d="M335.762 66.0073L333.563 65.6188C332.334 65.3953 331.203 64.8019 330.32 63.9179C329.438 63.0339 328.846 61.9014 328.624 60.6719L326.479 64.2694L326.385 64.3005C321.272 65.9985 315.952 65.4907 310.125 62.75C308.459 61.9595 306.843 61.0681 305.285 60.0808L305.17 60.009L305.161 59.874C304.864 55.5547 305.833 51.9464 307.89 49.7135C308.68 48.8734 309.638 48.2098 310.702 47.7661C311.766 47.3223 312.912 47.1086 314.065 47.1387C314.147 47.1173 314.222 47.0757 314.284 47.0177C314.314 46.9959 314.343 46.9744 314.373 46.9539V46.9316L314.525 46.8598C314.853 46.7058 315.187 46.5583 315.52 46.4235C318.147 45.4065 321.007 45.1513 323.772 45.6874C326.537 46.2235 329.094 47.529 331.151 49.454C335.239 53.3585 337.115 59.9108 335.817 65.7593L335.762 66.0073Z" fill="#2F2E41"/>
<path d="M363.759 77.3197C359.242 74.9876 365.052 66.5236 363.884 61.5749C362.717 56.6263 354.311 55.0346 353.775 49.9783C353.24 44.922 351.98 39.707 348.644 35.8703C346.513 33.4186 343.372 31.6087 340.138 31.9158C339.044 32.0197 337.986 32.3582 337.034 32.9083C336.083 33.4585 335.261 34.2073 334.625 35.1037C333.989 36.0002 333.553 37.0232 333.348 38.1032C333.143 39.1832 333.173 40.2947 333.436 41.3621C332.515 40.0572 330.132 40.34 329.543 41.8242C329.018 43.1437 330.177 44.742 331.54 44.8588C333.323 47.0621 335.366 49.4005 338.16 49.8449C338.605 49.9472 339.068 49.9469 339.513 49.8442C339.958 49.7414 340.374 49.5388 340.73 49.2517C341.387 48.6202 341.438 47.3577 340.658 46.8858C344.17 48.2811 346.229 52.0791 346.75 55.8226C347.271 59.5662 346.55 63.354 346.075 67.1036C345.6 70.8533 345.395 74.7978 346.865 78.2799C348.602 82.394 352.6 85.3426 356.963 86.2882C361.327 87.2338 365.974 86.3096 369.923 84.2275C373.873 82.1451 377.166 78.9663 379.857 75.4025C375.222 78.6943 368.81 79.9275 363.759 77.3197Z" fill="#2F2E41"/>
<path d="M335.198 65.6382C335.198 65.6382 331.266 50.9572 314.41 47.5688C314.391 47.5625 314.328 47.5371 314.246 47.4992C314.195 47.4675 314.132 47.4358 314.069 47.4042C314.258 47.2965 314.442 47.2015 314.632 47.1064L314.635 47.106L314.637 47.1046L314.638 47.1025L314.638 47.1001C314.803 46.9481 314.968 46.7961 315.139 46.6504L315.62 46.6695C315.62 46.6695 332.532 43.9904 335.198 65.6382Z" fill="#00D084"/>
<path opacity="0.2" d="M326.394 112.746L316.875 123.778L301.145 119.132L318.293 127.036L326.394 112.746Z" fill="black"/>
<path d="M383.533 313.837L237.171 314C237.004 313.999 236.843 313.933 236.725 313.814C236.607 313.696 236.541 313.535 236.541 313.368C236.541 313.2 236.607 313.04 236.725 312.921C236.843 312.803 237.004 312.736 237.171 312.736L383.533 312.572C383.701 312.572 383.862 312.639 383.98 312.758C384.099 312.876 384.165 313.037 384.165 313.205C384.165 313.372 384.099 313.533 383.98 313.652C383.862 313.77 383.701 313.837 383.533 313.837Z" fill="#CACACA"/>
<path d="M389.958 215.594C383.104 215.594 375.593 215.335 367.423 214.817C325.165 212.133 270.429 202.801 213.297 188.54C156.165 174.28 103.463 156.794 64.8991 139.305C46.1135 130.786 31.6956 122.721 22.0465 115.335C11.8305 107.516 7.36196 100.701 8.76432 95.0789C11.4968 84.1265 35.6913 81.7303 55.5068 81.6489L55.5136 83.2417C28.3016 83.3534 12.2478 87.6944 10.3095 95.4647C7.8404 105.361 27.9773 120.812 65.5567 137.855C104.036 155.305 156.641 172.757 213.683 186.995C270.724 201.233 325.359 210.549 367.524 213.227C408.701 215.844 433.735 211.668 436.204 201.771C438.253 193.554 424.74 181.45 398.152 167.686L398.884 166.272C418.203 176.273 440.628 190.616 437.749 202.157C436.346 207.779 429.2 211.695 416.51 213.796C409.275 214.994 400.39 215.594 389.958 215.594Z" fill="#7E71C2"/>
</g>
<defs>
<clipPath id="clip0_9_2">
<rect width="438" height="314" fill="white"/>
</clipPath>
</defs>
</svg>
