<svg width="474" height="473" viewBox="0 0 474 473" fill="none" xmlns="http://www.w3.org/2000/svg">
<path d="M331.927 434.855C331.845 435.325 331.733 435.795 331.604 436.259H303.162C302.686 435.795 302.216 435.325 301.758 434.855C297.033 430.111 293.073 424.663 290.019 418.704C287.738 414.139 286.193 409.241 285.443 404.193C283.962 394.234 285.678 383.912 291.535 375.875C291.682 375.669 291.835 375.463 291.988 375.264C292.046 375.522 292.111 375.775 292.182 376.033C293.067 379.577 294.24 383.043 295.689 386.397C295.795 386.656 295.906 386.914 296.024 387.173C299.58 395.179 304.59 402.456 310.8 408.635C312.21 410.039 313.677 411.378 315.2 412.653C316.375 413.634 317.582 414.574 318.819 415.473C321.757 417.612 325.012 419.715 327.579 422.259C329.575 424.113 331.028 426.475 331.786 429.092C331.798 429.139 331.809 429.18 331.821 429.227C332.259 431.074 332.295 432.993 331.927 434.855Z" fill="#00D084"/>
<path d="M322.362 434.855C322.351 435.325 322.327 435.795 322.292 436.259H321.611C321.652 435.789 321.681 435.319 321.693 434.855C321.726 433.985 321.695 433.113 321.599 432.247C321.275 429.438 320.106 426.712 317.627 425.173C316.902 424.733 316.13 424.378 315.324 424.116C313.732 423.575 312.034 423.293 310.412 422.899C310.019 422.805 309.631 422.7 309.255 422.588C307.151 422 305.199 420.964 303.533 419.551C301.523 417.721 299.838 415.563 298.551 413.17C297.693 411.66 296.911 410.103 296.206 408.511C296.112 408.305 296.018 408.1 295.936 407.894C291.638 397.805 290.119 386.749 291.536 375.875C291.559 375.663 291.588 375.457 291.618 375.246C291.676 374.823 292.329 374.993 292.264 375.422C292.235 375.628 292.205 375.828 292.182 376.033C291.607 380.448 291.522 384.913 291.929 389.346C291.953 389.575 291.976 389.799 291.994 390.016C292.62 396.155 294.188 402.161 296.641 407.824C296.67 407.888 296.694 407.947 296.729 408.012V408.023C297.311 409.339 297.939 410.632 298.615 411.901C299.844 414.332 301.448 416.555 303.368 418.487C304.992 420.033 306.953 421.181 309.096 421.842C309.308 421.906 309.525 421.971 309.743 422.03C309.913 422.083 310.089 422.13 310.266 422.171C311.917 422.582 313.626 422.87 315.259 423.393C316.001 423.622 316.721 423.917 317.41 424.274C318.536 424.889 319.518 425.736 320.293 426.759C321.068 427.782 321.617 428.957 321.904 430.208C322.276 431.728 322.43 433.292 322.362 434.855Z" fill="white"/>
<path d="M296.506 408.409C294.495 409.144 292.287 409.139 290.278 408.397C288.269 407.654 286.59 406.222 285.54 404.355C285.329 403.977 285.907 403.631 286.118 404.01C287.093 405.75 288.658 407.084 290.53 407.772C292.402 408.459 294.458 408.455 296.327 407.76C296.734 407.609 296.911 408.259 296.506 408.409Z" fill="white"/>
<path d="M309.01 422.028C310.891 418.075 311.214 413.558 309.913 409.377C309.783 408.963 310.433 408.784 310.562 409.198C311.908 413.551 311.563 418.251 309.596 422.36C309.408 422.752 308.823 422.418 309.01 422.028Z" fill="white"/>
<path d="M291.727 389.382C292.565 389.26 293.359 388.932 294.038 388.427C294.718 387.922 295.261 387.257 295.62 386.49C295.803 386.096 296.387 386.431 296.206 386.822C295.806 387.667 295.205 388.402 294.455 388.961C293.706 389.521 292.831 389.888 291.906 390.032C291.82 390.052 291.73 390.04 291.653 389.996C291.576 389.952 291.518 389.881 291.492 389.797C291.469 389.71 291.481 389.619 291.525 389.541C291.569 389.464 291.641 389.406 291.727 389.382Z" fill="white"/>
<path d="M344.018 434.855C344.03 435.167 344.024 435.472 344.012 435.778C344.007 435.936 344.001 436.101 343.989 436.259H317.368C317.257 435.789 317.151 435.325 317.045 434.855C316.245 431.315 315.67 427.728 315.324 424.116C315.3 423.875 315.277 423.64 315.259 423.393V423.387C314.949 419.819 314.929 416.231 315.2 412.659V412.653C315.359 410.703 315.612 408.764 315.964 406.825C316.885 401.841 318.585 397.033 320.999 392.578C321.011 392.56 321.017 392.542 321.029 392.525C325.846 383.665 333.437 376.439 342.961 373.542H342.967L342.972 373.536C343.213 373.472 343.454 373.401 343.695 373.331C343.589 373.572 343.484 373.824 343.384 374.071C343.378 374.077 343.372 374.077 343.378 374.083C341.954 377.438 340.806 380.904 339.947 384.447C339.876 384.723 339.806 384.993 339.747 385.269V385.275C337.762 393.83 337.384 402.679 338.631 411.372C338.889 413.135 339.213 414.886 339.6 416.625C339.97 418.299 340.411 419.956 340.91 421.595C341.915 424.879 343.16 428.316 343.724 431.706V431.712C343.903 432.751 344.001 433.802 344.018 434.855Z" fill="#00D084"/>
<path d="M343.824 373.624C343.677 373.771 343.53 373.918 343.383 374.071C343.377 374.077 343.372 374.077 343.377 374.083C340.264 377.254 337.513 380.761 335.176 384.541C335.052 384.729 334.935 384.922 334.823 385.116C331.617 390.396 329.25 396.142 327.808 402.148C327.791 402.207 327.779 402.272 327.761 402.336C327.432 403.735 327.156 405.151 326.933 406.572C326.449 409.253 326.389 411.993 326.757 414.692C327.12 416.906 327.995 419.004 329.312 420.82C329.336 420.856 329.361 420.891 329.389 420.925C329.494 421.072 329.606 421.225 329.718 421.366C329.824 421.507 329.935 421.648 330.047 421.789C331.61 423.71 333.425 425.502 334.488 427.77C334.809 428.453 335.034 429.176 335.158 429.92C335.433 431.582 335.254 433.287 334.641 434.855C334.594 434.973 334.547 435.096 334.5 435.214C334.353 435.572 334.189 435.919 334.012 436.26H333.249C333.5 435.806 333.721 435.337 333.913 434.855C334.594 433.255 334.786 431.489 334.465 429.779C334.383 429.382 334.267 428.993 334.118 428.616C333.196 426.236 331.322 424.392 329.729 422.459C329.395 422.053 329.077 421.642 328.778 421.219C327.562 419.553 326.702 417.656 326.251 415.644C325.746 412.972 325.699 410.235 326.111 407.548C326.333 405.823 326.647 404.111 327.05 402.419C327.092 402.195 327.144 401.978 327.203 401.761C328.195 397.734 329.599 393.82 331.392 390.081C334.309 383.966 338.22 378.377 342.966 373.542L342.972 373.536C343.113 373.389 343.26 373.243 343.407 373.096C343.712 372.79 344.13 373.319 343.824 373.624Z" fill="white"/>
<path d="M327.348 402.515C325.299 401.891 323.539 400.558 322.382 398.756C321.225 396.953 320.747 394.798 321.032 392.676C321.091 392.246 321.761 392.318 321.702 392.748C321.433 394.724 321.879 396.732 322.959 398.408C324.04 400.084 325.684 401.319 327.595 401.889C328.011 402.013 327.76 402.639 327.348 402.515Z" fill="white"/>
<path d="M329.131 420.917C333.014 418.894 335.991 415.481 337.469 411.36C337.615 410.951 338.241 411.199 338.095 411.607C336.549 415.893 333.444 419.438 329.399 421.535C329.013 421.735 328.748 421.116 329.131 420.917Z" fill="white"/>
<path d="M334.987 384.446C335.73 384.853 336.561 385.069 337.408 385.075C338.254 385.081 339.089 384.877 339.837 384.48C340.22 384.276 340.485 384.895 340.105 385.098C339.276 385.532 338.354 385.757 337.419 385.752C336.484 385.748 335.564 385.514 334.74 385.072C334.658 385.037 334.594 384.972 334.558 384.891C334.523 384.81 334.52 384.719 334.55 384.635C334.583 384.553 334.648 384.486 334.73 384.451C334.812 384.415 334.904 384.414 334.987 384.446Z" fill="white"/>
<path d="M369.004 127.813C382.68 127.813 393.766 116.727 393.766 103.051C393.766 89.3751 382.68 78.2886 369.004 78.2886C355.328 78.2886 344.241 89.3751 344.241 103.051C344.241 116.727 355.328 127.813 369.004 127.813Z" fill="#2F2E41"/>
<path d="M357.694 415.693L348.142 413.702L351.277 375.91L365.375 378.849L357.694 415.693Z" fill="#A0616A"/>
<path d="M358.718 410.785L348.613 408.047L346.997 407.606L345.651 414.075L339.6 416.625L332.203 419.739L332.191 419.744L329.389 420.925L329.23 420.996C329.137 421.037 329.048 421.078 328.96 421.125H328.954C328.896 421.154 328.837 421.19 328.778 421.219C328.317 421.487 327.91 421.84 327.58 422.259C327.149 422.812 326.865 423.466 326.757 424.159C326.648 424.852 326.717 425.561 326.958 426.22C327.199 426.878 327.603 427.465 328.134 427.924C328.664 428.384 329.302 428.7 329.988 428.845L331.821 429.227L334.465 429.779L335.159 429.92L343.724 431.706V431.712L347.966 432.593L352.396 426.836L352.273 433.486L358.83 434.855L359.053 434.902L359.058 434.855L361.914 411.654L358.718 410.785Z" fill="#2F2E41"/>
<path d="M407.569 405.869L399.195 410.879L375.886 380.967L388.243 373.573L407.569 405.869Z" fill="#A0616A"/>
<path d="M421.588 419.069L407.934 400.039L404.996 401.567L395.708 406.402L394.221 407.172L397.617 412.841L390.232 429.062C389.967 429.645 389.841 430.282 389.865 430.922C389.888 431.562 390.06 432.188 390.368 432.75C390.675 433.312 391.109 433.795 391.635 434.16C392.161 434.526 392.765 434.764 393.399 434.855C393.8 434.914 394.208 434.914 394.609 434.855C395.141 434.777 395.653 434.593 396.113 434.315L411.87 424.885L411.23 417.653L415.648 422.629L421.588 419.069Z" fill="#2F2E41"/>
<path d="M385.819 233.938L339.831 232.17L337.179 184.413H390.241L385.819 233.938Z" fill="#A0616A"/>
<path d="M415.009 266.711C414.211 265.988 413.581 265.1 413.163 264.107C412.745 263.114 412.55 262.042 412.592 260.966C412.633 259.89 412.91 258.836 413.403 257.879C413.896 256.921 414.592 256.083 415.444 255.424L407.095 230.614L420.246 234.09L426.159 257.117C427.171 258.621 427.597 260.444 427.355 262.241C427.113 264.038 426.22 265.684 424.846 266.866C423.471 268.049 421.711 268.686 419.898 268.658C418.085 268.629 416.346 267.937 415.009 266.711Z" fill="#A0616A"/>
<path d="M365.222 128.886C374.894 128.886 382.734 121.045 382.734 111.373C382.734 101.701 374.894 93.8602 365.222 93.8602C355.549 93.8602 347.708 101.701 347.708 111.373C347.708 121.045 355.549 128.886 365.222 128.886Z" fill="#A0616A"/>
<path d="M383.082 99.2901L365.316 85.4001L350.769 88.7148L344.923 108.845L353.625 108.41L356.056 101.047V108.289L360.073 108.088L362.403 96.3666L363.86 108.845L378.135 108.467L383.082 99.2901Z" fill="#2F2E41"/>
<path d="M338.947 221.557C338.947 221.557 323.626 248.187 338.418 288.592L379.275 392.773L398.807 381.227L378.897 336.374L395.092 281.474C398.822 269.032 399.971 255.96 398.471 243.058C397.304 233.404 392.663 228.9 386.703 219.788C366.801 232.625 339.806 227.53 338.947 221.557Z" fill="#2F2E41"/>
<path d="M359.31 328.442L345.673 391.789L365.4 395.508L376.634 342.256L359.31 328.442Z" fill="#2F2E41"/>
<path d="M377.551 133.366L354.908 133.668L347.539 143.025L335.675 145.823L332.592 163.641C331.05 172.549 332.687 178.191 337.216 186.015L337.758 201.407L337.159 202.496C336.863 203.035 336.775 203.663 336.914 204.262C337.053 204.861 337.408 205.387 337.911 205.74C337.487 206.81 337.437 207.993 337.771 209.094L338.063 210.06C338.063 210.06 338.906 216.807 386.716 209.711C387.73 209.561 388.667 209.084 389.386 208.354C390.105 207.623 390.566 206.678 390.699 205.661C391.219 205.139 391.561 204.466 391.678 203.739C391.795 203.011 391.681 202.265 391.351 201.606L391.254 201.411L391.745 200.833C392.291 200.189 392.607 199.382 392.641 198.538C392.676 197.695 392.428 196.864 391.936 196.178L398.807 147.025L384.614 142.605L377.551 133.366Z" fill="#FF8900"/>
<path d="M393.139 151.73L398.807 147.025C398.807 147.025 403.847 148.515 407.366 158.441C410.886 168.367 422.963 243.666 422.963 243.666L408.813 236.591L388.749 181.268L393.139 151.73Z" fill="#FF8900"/>
<path d="M261.181 217.575C261.699 216.628 262.432 215.821 263.329 215.211C264.227 214.601 265.266 214.203 266.375 214.045C267.484 213.887 268.635 213.972 269.746 214.295C270.858 214.618 271.904 215.171 272.81 215.915L295.102 201.812L302.446 214.045L274.03 227.131C272.774 228.441 271.032 229.214 269.133 229.302C267.235 229.391 265.311 228.789 263.727 227.611C262.143 226.433 261.01 224.761 260.54 222.911C260.071 221.061 260.299 219.163 261.181 217.575Z" fill="#A0616A"/>
<path d="M342.247 151.3L338.405 145.016C338.405 145.016 333.154 144.796 326.615 153.051C323.262 157.283 301.535 193.583 301.535 193.583L281.442 210.331L297.892 216.206L317.28 207.98L339.018 172.142L342.247 151.3Z" fill="#FF8900"/>
<path d="M425.779 106.938C420.621 101.092 417.363 93.8605 413.992 86.8309C410.62 79.8013 406.944 72.6991 401.202 67.4265C395.459 62.1539 387.183 58.9918 379.723 61.2561C372.263 63.5204 366.886 72.4142 370.049 79.5396L370.313 80.6828C388.191 81.4216 405.383 91.7917 414.376 107.261C418.621 114.562 421.246 123.014 427.249 128.954C430.422 132.095 434.37 134.34 438.692 135.461C443.013 136.582 447.555 136.54 451.855 135.338C456.155 134.136 460.06 131.818 463.174 128.619C466.288 125.42 468.501 121.454 469.586 117.123C454.798 123.221 436.36 118.934 425.779 106.938Z" fill="#2F2E41"/>
<path d="M473.988 435.554C473.988 435.74 473.915 435.919 473.784 436.051C473.653 436.183 473.475 436.258 473.289 436.259H265.72C265.534 436.259 265.355 436.185 265.224 436.054C265.092 435.922 265.018 435.744 265.018 435.557C265.018 435.371 265.092 435.193 265.224 435.061C265.355 434.929 265.534 434.855 265.72 434.855H473.289C473.474 434.857 473.651 434.931 473.782 435.062C473.913 435.192 473.987 435.369 473.988 435.554Z" fill="#3F3D56"/>
<path d="M164.211 192.692C164.625 192.692 165.022 192.857 165.314 193.149C165.607 193.442 165.772 193.838 165.772 194.252V301.392C165.772 301.805 165.607 302.202 165.314 302.495C165.022 302.787 164.625 302.952 164.211 302.952H14.9487C14.5349 302.952 14.1382 302.787 13.8456 302.495C13.5531 302.202 13.3885 301.805 13.3881 301.392V194.252C13.3885 193.838 13.5531 193.442 13.8456 193.149C14.1382 192.857 14.5349 192.692 14.9487 192.692H164.211Z" fill="#E6E6E6"/>
<path d="M23.1919 202.274V278.416C23.192 278.924 23.3938 279.411 23.753 279.77C24.1121 280.129 24.5993 280.331 25.1072 280.331H154.361C154.451 280.332 154.542 280.324 154.631 280.308C155.087 280.243 155.504 280.016 155.806 279.669C156.109 279.321 156.275 278.876 156.276 278.416V202.274C156.276 201.766 156.074 201.279 155.715 200.92C155.356 200.56 154.869 200.359 154.361 200.358H25.1072C24.5993 200.359 24.1122 200.56 23.753 200.92C23.3938 201.279 23.192 201.766 23.1919 202.274Z" fill="white"/>
<path d="M49.982 235.203C46.1471 235.203 43.0382 232.094 43.0382 228.259C43.0382 224.424 46.1471 221.315 49.982 221.315C53.817 221.315 56.9258 224.424 56.9258 228.259C56.9258 232.094 53.817 235.203 49.982 235.203Z" fill="#FF8900"/>
<path d="M161.312 198.831C160.047 198.831 159.022 197.806 159.022 196.541C159.022 195.277 160.047 194.252 161.312 194.252C162.576 194.252 163.601 195.277 163.601 196.541C163.601 197.806 162.576 198.831 161.312 198.831Z" fill="#3F3D56"/>
<path d="M18.154 198.831C16.8897 198.831 15.8648 197.806 15.8648 196.541C15.8648 195.277 16.8897 194.252 18.154 194.252C19.4184 194.252 20.4434 195.277 20.4434 196.541C20.4434 197.806 19.4184 198.831 18.154 198.831Z" fill="#3F3D56"/>
<path d="M161.312 301.392C160.047 301.392 159.022 300.367 159.022 299.102C159.022 297.838 160.047 296.813 161.312 296.813C162.576 296.813 163.601 297.838 163.601 299.102C163.601 300.367 162.576 301.392 161.312 301.392Z" fill="#3F3D56"/>
<path d="M18.154 301.392C16.8897 301.392 15.8648 300.367 15.8648 299.102C15.8648 297.838 16.8897 296.813 18.154 296.813C19.4184 296.813 20.4434 297.838 20.4434 299.102C20.4434 300.367 19.4184 301.392 18.154 301.392Z" fill="#3F3D56"/>
<path d="M113.69 255.518C109.089 255.518 105.359 251.788 105.359 247.187C105.359 242.586 109.089 238.856 113.69 238.856C118.292 238.856 122.021 242.586 122.021 247.187C122.021 251.788 118.292 255.518 113.69 255.518Z" fill="#00D084"/>
<path d="M112.888 272.28H114.594L113.816 245.932L112.888 272.28Z" fill="#3F3D56"/>
<path d="M113.666 250.926L111.834 248.391L113.691 251.553L113.891 251.202L113.666 250.926Z" fill="#3F3D56"/>
<path d="M113.866 253.486L115.698 250.951L113.841 254.113L113.64 253.761L113.866 253.486Z" fill="#3F3D56"/>
<path d="M37.269 255.518C32.6679 255.518 28.938 251.788 28.938 247.187C28.938 242.586 32.6679 238.856 37.269 238.856C41.8701 238.856 45.6001 242.586 45.6001 247.187C45.6001 251.788 41.8701 255.518 37.269 255.518Z" fill="#00D084"/>
<path d="M36.4662 272.28H38.1724L37.3945 245.932L36.4662 272.28Z" fill="#3F3D56"/>
<path d="M37.2436 250.926L35.4118 248.391L37.2683 251.553L37.4692 251.202L37.2436 250.926Z" fill="#3F3D56"/>
<path d="M37.444 253.486L39.2759 250.951L37.4193 254.113L37.2184 253.761L37.444 253.486Z" fill="#3F3D56"/>
<path d="M89.5571 252.224C82.7616 252.224 77.2528 246.715 77.2528 239.92C77.2528 233.124 82.7616 227.615 89.5571 227.615C96.3525 227.615 101.861 233.124 101.861 239.92C101.861 246.715 96.3525 252.224 89.5571 252.224Z" fill="#00D084"/>
<path d="M88.3713 276.981H90.8911L89.7425 238.066L88.3713 276.981Z" fill="#3F3D56"/>
<path d="M89.5198 245.442L86.8143 241.698L89.5568 246.368L89.8535 245.849L89.5198 245.442Z" fill="#3F3D56"/>
<path d="M89.8165 249.222L92.522 245.479L89.7795 250.149L89.4828 249.63L89.8165 249.222Z" fill="#3F3D56"/>
<path d="M59.5507 247.524C52.7553 247.524 47.2464 242.015 47.2464 235.22C47.2464 228.424 52.7553 222.915 59.5507 222.915C66.3462 222.915 71.855 228.424 71.855 235.22C71.855 242.015 66.3462 247.524 59.5507 247.524Z" fill="#00D084"/>
<path d="M58.3649 272.28H60.8848L59.7362 233.366L58.3649 272.28Z" fill="#3F3D56"/>
<path d="M59.5135 240.741L56.8085 236.998L59.5511 241.668L59.8472 241.149L59.5135 240.741Z" fill="#3F3D56"/>
<path d="M59.8101 244.522L62.5156 240.778L59.7731 245.449L59.4764 244.93L59.8101 244.522Z" fill="#3F3D56"/>
<path d="M137.379 247.524C130.584 247.524 125.075 242.015 125.075 235.22C125.075 228.424 130.584 222.915 137.379 222.915C144.175 222.915 149.684 228.424 149.684 235.22C149.684 242.015 144.175 247.524 137.379 247.524Z" fill="#00D084"/>
<path d="M136.193 272.28H138.713L137.564 233.366L136.193 272.28Z" fill="#3F3D56"/>
<path d="M137.342 240.741L134.637 236.998L137.379 241.668L137.676 241.149L137.342 240.741Z" fill="#3F3D56"/>
<path d="M137.638 244.522L140.344 240.778L137.601 245.449L137.305 244.93L137.638 244.522Z" fill="#3F3D56"/>
<path d="M88.8702 280.331H154.361C154.451 280.332 154.542 280.324 154.631 280.308C155.087 280.243 155.504 280.016 155.806 279.669C156.109 279.321 156.275 278.876 156.276 278.416V262.065C150.113 261.038 143.876 260.531 137.628 260.549C114.38 260.549 94.9334 267.212 90.057 276.13C89.3212 277.411 88.9135 278.854 88.8702 280.331Z" fill="#B2F3DE"/>
<path d="M23.1914 274.709V278.416C23.1915 278.924 23.3933 279.411 23.7525 279.77C24.1117 280.129 24.5988 280.331 25.1067 280.331H97.5649C95.2343 278.643 92.7144 277.233 90.0565 276.13C81.1791 272.323 68.6592 269.95 54.788 269.95C42.7321 269.95 31.7045 271.736 23.1914 274.709Z" fill="#B2F3DE"/>
<path d="M81.1636 9.98773C81.4186 9.98808 81.6696 10.0511 81.8945 10.1713L213.674 80.2684C214.039 80.4633 214.312 80.795 214.432 81.1906C214.553 81.5863 214.512 82.0137 214.318 82.3792L164.004 176.969C163.809 177.334 163.477 177.607 163.081 177.728C162.686 177.849 162.258 177.808 161.892 177.614L30.1134 107.517C29.7484 107.322 29.4755 106.991 29.3546 106.595C29.2337 106.199 29.2747 105.772 29.4685 105.406L79.7837 10.8165C79.8795 10.6351 80.0103 10.4746 80.1685 10.3441C80.3268 10.2137 80.5094 10.1159 80.7057 10.0566C80.8541 10.0111 81.0084 9.9879 81.1636 9.98773Z" fill="#E6E6E6"/>
<path d="M84.6705 22.5018L48.9138 89.7226C48.7955 89.9449 48.7221 90.1882 48.6979 90.4388C48.6737 90.6894 48.6991 90.9423 48.7727 91.1831C48.8463 91.4239 48.9665 91.6478 49.1266 91.842C49.2868 92.0363 49.4836 92.1971 49.7059 92.3153L163.818 153.014C163.898 153.058 163.983 153.095 164.07 153.125C164.504 153.281 164.979 153.275 165.408 153.11C165.838 152.944 166.194 152.629 166.41 152.222L202.167 85.0014C202.285 84.7792 202.359 84.5358 202.383 84.2852C202.407 84.0346 202.382 83.7817 202.308 83.541C202.234 83.3002 202.114 83.0763 201.954 82.882C201.794 82.6878 201.597 82.527 201.375 82.4088L87.2631 21.7096C87.0408 21.5913 86.7975 21.518 86.5469 21.4937C86.2963 21.4695 86.0434 21.4949 85.8026 21.5685C85.5619 21.6421 85.338 21.7623 85.1437 21.9225C84.9494 22.0826 84.7886 22.2795 84.6705 22.5018Z" fill="white"/>
<path d="M160.94 109.946C151.652 109.946 144.123 102.417 144.123 93.1292C144.123 83.8413 151.652 76.312 160.94 76.312C170.228 76.312 177.757 83.8413 177.757 93.1292C177.757 102.417 170.228 109.946 160.94 109.946Z" fill="#FF8900"/>
<path d="M90.0425 114.117L162.879 152.861C162.97 152.911 163.065 152.952 163.163 152.984L160.455 74.9903C160.442 74.5068 160.301 74.0354 160.047 73.6241C159.793 73.2128 159.434 72.8764 159.007 72.6493C158.58 72.4222 158.1 72.3125 157.617 72.3314C157.133 72.3503 156.664 72.4971 156.256 72.7569L111.837 100.502L109.71 101.829L90.0425 114.117Z" fill="#3F3D56"/>
<path opacity="0.2" d="M90.0418 114.117L114.91 127.345L112.135 103.119L111.936 101.375L111.836 100.502L109.709 101.829L90.0418 114.117Z" fill="black"/>
<path d="M49.4874 92.5446L112.485 126.055L109.71 101.829L109.511 100.084L105.895 68.5141C105.658 66.4448 103.199 65.0159 101.269 65.6869C101.139 65.7333 101.011 65.788 100.888 65.8507L49.4874 92.5446Z" fill="#3F3D56"/>
<path d="M209.305 84.595C208.041 84.595 207.016 83.57 207.016 82.3057C207.016 81.0413 208.041 80.0164 209.305 80.0164C210.57 80.0164 211.595 81.0413 211.595 82.3057C211.595 83.57 210.57 84.595 209.305 84.595Z" fill="#3F3D56"/>
<path d="M82.9158 17.3649C81.6514 17.3649 80.6264 16.3399 80.6264 15.0756C80.6264 13.8112 81.6514 12.7863 82.9158 12.7863C84.1801 12.7863 85.2051 13.8112 85.2051 15.0756C85.2051 16.3399 84.1801 17.3649 82.9158 17.3649Z" fill="#3F3D56"/>
<path d="M161.141 175.143C159.877 175.143 158.852 174.118 158.852 172.853C158.852 171.589 159.877 170.564 161.141 170.564C162.405 170.564 163.43 171.589 163.43 172.853C163.43 174.118 162.405 175.143 161.141 175.143Z" fill="#3F3D56"/>
<path d="M34.7512 107.913C33.4869 107.913 32.4619 106.888 32.4619 105.623C32.4619 104.359 33.4869 103.334 34.7512 103.334C36.0156 103.334 37.0405 104.359 37.0405 105.623C37.0405 106.888 36.0156 107.913 34.7512 107.913Z" fill="#3F3D56"/>
<path d="M49.2554 463.052C48.8554 463.158 48.4298 463.1 48.0718 462.893C47.7139 462.685 47.4529 462.344 47.346 461.945L19.8028 358.406C19.6964 358.006 19.7534 357.58 19.961 357.222C20.1687 356.864 20.5101 356.603 20.9101 356.496L165.157 318.124C165.557 318.018 165.982 318.075 166.34 318.283C166.698 318.49 166.959 318.832 167.066 319.232L194.609 422.77C194.661 422.968 194.675 423.175 194.647 423.378C194.62 423.581 194.553 423.777 194.451 423.954C194.348 424.132 194.211 424.287 194.048 424.412C193.885 424.536 193.699 424.627 193.501 424.68L49.2554 463.052Z" fill="#E6E6E6"/>
<path d="M31.3392 363.638L50.9134 437.221C51.0441 437.711 51.3643 438.13 51.8038 438.385C52.2432 438.64 52.7658 438.71 53.2567 438.579L178.166 405.351C178.254 405.329 178.339 405.298 178.421 405.259C178.845 405.08 179.19 404.753 179.393 404.34C179.596 403.926 179.643 403.453 179.525 403.008L159.95 329.425C159.82 328.934 159.5 328.515 159.06 328.261C158.621 328.006 158.098 327.936 157.607 328.066L32.6978 361.294C32.2069 361.425 31.7881 361.745 31.5333 362.185C31.2786 362.624 31.2087 363.147 31.3392 363.638Z" fill="white"/>
<path d="M48.1329 426.768L50.9134 437.221C51.0441 437.711 51.3643 438.13 51.8038 438.385C52.2432 438.64 52.7658 438.71 53.2567 438.579L178.166 405.351C178.254 405.329 178.339 405.298 178.421 405.259C178.845 405.08 179.19 404.753 179.393 404.339C179.596 403.926 179.643 403.453 179.525 403.008L176.744 392.555L48.1329 426.768Z" fill="#3F3D56"/>
<path d="M103.323 418.774L123.195 413.488L123.799 415.759L103.928 421.045L103.323 418.774Z" fill="#CCCCCC"/>
<path d="M149.029 406.615L168.901 401.329L169.505 403.6L149.633 408.886L149.029 406.615Z" fill="#CCCCCC"/>
<path d="M57.6183 430.932L77.4902 425.646L78.0944 427.917L58.2224 433.203L57.6183 430.932Z" fill="#CCCCCC"/>
<path d="M163.344 324.88C162.079 324.88 161.054 323.855 161.054 322.591C161.054 321.326 162.079 320.301 163.344 320.301C164.608 320.301 165.633 321.326 165.633 322.591C165.633 323.855 164.608 324.88 163.344 324.88Z" fill="#3F3D56"/>
<path d="M24.9969 361.682C23.7325 361.682 22.7075 360.657 22.7075 359.393C22.7075 358.129 23.7325 357.104 24.9969 357.104C26.2612 357.104 27.2861 358.129 27.2861 359.393C27.2861 360.657 26.2612 361.682 24.9969 361.682Z" fill="#3F3D56"/>
<path d="M189.709 423.994C188.445 423.994 187.42 422.969 187.42 421.705C187.42 420.44 188.445 419.415 189.709 419.415C190.974 419.415 191.999 420.44 191.999 421.705C191.999 422.969 190.974 423.994 189.709 423.994Z" fill="#3F3D56"/>
<path d="M51.363 460.796C50.0987 460.796 49.0737 459.771 49.0737 458.507C49.0737 457.243 50.0987 456.218 51.363 456.218C52.6274 456.218 53.6523 457.243 53.6523 458.507C53.6523 459.771 52.6274 460.796 51.363 460.796Z" fill="#3F3D56"/>
<path d="M78.8496 422L67.8066 424.944L67.3393 423.191L78.3823 420.247L78.8496 422Z" fill="#3F3D56"/>
<path d="M158.343 399.397L156.205 400.531L69.6132 423.615L68.3518 422.008C66.1656 419.257 64.7874 415.952 64.371 412.463C64.0774 409.858 64.3496 407.119 66.1848 405.473L63.2186 378.853L111.109 366.022L133.624 376.042C133.624 376.042 142.327 373.559 148.651 378.209C150.949 379.952 152.67 382.347 153.588 385.082L154.594 388.109L158.343 399.397Z" fill="#7E71C2"/>
<path d="M139.208 415.095C133.096 415.095 128.142 410.141 128.142 404.029C128.142 397.918 133.096 392.963 139.208 392.963C145.32 392.963 150.274 397.918 150.274 404.029C150.274 410.141 145.32 415.095 139.208 415.095Z" fill="#3F3D56"/>
<path d="M139.208 409.853C135.991 409.853 133.384 407.246 133.384 404.029C133.384 400.813 135.991 398.205 139.208 398.205C142.425 398.205 145.032 400.813 145.032 404.029C145.032 407.246 142.425 409.853 139.208 409.853Z" fill="#CCCCCC"/>
<path d="M86.4468 429.161C80.3353 429.161 75.3809 424.206 75.3809 418.095C75.3809 411.983 80.3353 407.029 86.4468 407.029C92.5583 407.029 97.5127 411.983 97.5127 418.095C97.5127 424.206 92.5583 429.161 86.4468 429.161Z" fill="#3F3D56"/>
<path d="M86.4468 423.919C83.2302 423.919 80.6227 421.311 80.6227 418.095C80.6227 414.878 83.2302 412.271 86.4468 412.271C89.6634 412.271 92.271 414.878 92.271 418.095C92.271 421.311 89.6634 423.919 86.4468 423.919Z" fill="#CCCCCC"/>
<path d="M125.794 376.254L99.928 383.146L96.7701 383.987L91.439 385.409L91.3356 385.019L90.0847 380.332L88.6806 375.069L92.2274 374.125L95.3847 373.281L100.977 371.79L104.135 370.95L110.592 369.228L125.794 376.254Z" fill="white"/>
<path d="M87.2314 386.532L73.5611 390.177L72.8438 387.495L71.5971 382.807L70.8028 379.837L72.8044 379.304L75.9617 378.46L84.4766 376.191L87.2314 386.532Z" fill="white"/>
<path d="M96.1347 395.989L94.3818 396.456L93.494 393.126L95.2468 392.658L96.1347 395.989Z" fill="#3F3D56"/>
<path d="M120.045 382.854L119.578 381.101L122.909 380.213L123.376 381.966L120.045 382.854Z" fill="#3F3D56"/>
<path d="M121.011 381.545L121.204 381.494C122.175 381.235 123.004 380.6 123.508 379.73C124.012 378.86 124.149 377.825 123.89 376.853C123.631 375.882 122.997 375.053 122.127 374.549C121.257 374.045 120.222 373.908 119.25 374.167L119.057 374.218L121.011 381.545Z" fill="#3F3D56"/>
<path d="M154.594 388.109C153.307 388.606 151.885 388.632 150.58 388.184C149.275 387.736 148.17 386.841 147.46 385.658C146.75 384.475 146.48 383.079 146.697 381.716C146.915 380.354 147.607 379.112 148.651 378.209C150.949 379.952 152.67 382.347 153.588 385.082L154.594 388.109Z" fill="#3F3D56"/>
<path d="M95.3848 373.281L91.3356 385.019L90.0848 380.332L92.2275 374.125L95.3848 373.281Z" fill="#F2F2F2"/>
<path d="M75.9614 378.46L72.8435 387.494L71.5968 382.807L72.8041 379.304L75.9614 378.46Z" fill="#F2F2F2"/>
<path d="M104.135 370.949L99.9281 383.146L96.7702 383.986L100.977 371.79L104.135 370.949Z" fill="#F2F2F2"/>
</svg>
