<svg width="29" height="18" viewBox="0 0 29 18" fill="none" xmlns="http://www.w3.org/2000/svg">
<path d="M12 10.2547H3.05263C2.77346 10.2547 2.50572 10.1692 2.30831 10.0171C2.1109 9.86502 2 9.65873 2 9.44364V2.95552C2 2.74042 2.1109 2.53414 2.30831 2.38204C2.50572 2.22995 2.77346 2.1445 3.05263 2.1445H10.9474C11.2265 2.1445 11.4943 2.22995 11.6917 2.38204C11.8891 2.53414 12 2.74042 12 2.95552V11.8767C12 12.9522 11.4455 13.9836 10.4585 14.7441C9.47142 15.5045 8.13272 15.9318 6.73684 15.9318" stroke="#FF8900" stroke-width="3" stroke-linecap="square" stroke-linejoin="round"/>
<path d="M27 10.2547H18.0526C17.7735 10.2547 17.5057 10.1692 17.3083 10.0171C17.1109 9.86502 17 9.65873 17 9.44364V2.95552C17 2.74042 17.1109 2.53414 17.3083 2.38204C17.5057 2.22995 17.7735 2.1445 18.0526 2.1445H25.9474C26.2265 2.1445 26.4943 2.22995 26.6917 2.38204C26.8891 2.53414 27 2.74042 27 2.95552V11.8767C27 12.9522 26.4455 13.9836 25.4585 14.7441C24.4714 15.5045 23.1327 15.9318 21.7368 15.9318" stroke="#FF8900" stroke-width="3" stroke-linecap="square" stroke-linejoin="round"/>
</svg>
