<svg width="483" height="247" viewBox="0 0 483 247" fill="none" xmlns="http://www.w3.org/2000/svg">
<g clip-path="url(#clip0_19_638)">
<path d="M461.561 136.491L460.048 148.539L456.293 178.464H380.855C381.445 171.757 382.25 162.103 383.11 151.681C383.195 150.64 383.284 149.593 383.369 148.539C385.526 122.342 387.887 92.6971 387.887 92.6971L397.804 94.5446L417.046 98.1226L424.887 99.5798L445.884 103.49C456.352 105.435 463.553 120.592 461.561 136.491Z" fill="#F2F2F2"/>
<path d="M404.5 44.2193L413.776 60.4531L395.946 73.0892L388.34 53.1347L404.5 44.2193Z" fill="#FFB6B6"/>
<path d="M392.689 59.5772C405.382 59.5772 415.671 49.2879 415.671 36.5954C415.671 23.9029 405.382 13.6136 392.689 13.6136C379.997 13.6136 369.708 23.9029 369.708 36.5954C369.708 49.2879 379.997 59.5772 392.689 59.5772Z" fill="#FFB6B6"/>
<path d="M391.039 41.7332C389.215 38.9559 389.931 37.5033 388.403 36.4826C388.403 36.4826 387.788 36.0719 383.388 35.8377C382.403 28.7478 381.174 27.888 381.174 27.888C379.756 26.897 377.653 27.219 376.345 27.8251C373.577 29.1069 373.898 31.8757 372.035 32.4056C369.461 33.1375 364.777 29.0113 364.316 24.2876C363.94 20.4343 366.422 16.6919 367.407 16.8899C368.383 17.0862 370.721 14.1021 371.983 14.1482C372.845 14.1796 376.366 12.649 377.313 12.7686C378.348 12.8994 381.759 14.6795 381.901 14.2728C382.889 11.4466 382.599 10.6624 383.437 9.85389C384.922 8.42121 387.352 9.41889 391.163 9.95451C399.006 11.0565 400.375 8.47066 404.394 10.2234C406.424 11.1088 408.123 13.4966 411.437 18.236C416.073 24.8641 418.391 28.1781 418.406 32.0435C418.421 35.9855 416.512 35.7352 415.674 41.571C414.74 48.0671 416.723 51.0376 414.557 53.148C412.882 54.7792 409.479 55.1663 407.691 53.7348C404.629 51.2838 408.636 45.3697 405.248 41.0488C403.168 38.3965 398.986 37.2163 397.07 38.5274C394.904 40.0099 396.097 44.3611 394.574 44.7737C393.269 45.127 391.357 42.2171 391.039 41.7332Z" fill="#2F2E41"/>
<path d="M444.574 132.248C443.933 143.209 441.387 146.669 440.495 159.613C440.301 162.455 440.184 165.753 440.184 169.687C440.184 170.69 440.189 171.66 440.189 172.607C440.189 174.624 440.15 176.53 439.916 178.464C439.738 180.007 439.432 181.562 438.924 183.2H389.427C389.422 183.189 389.422 183.178 389.416 183.166C389.126 181.907 388.942 180.704 388.803 179.55C388.758 179.182 388.719 178.82 388.686 178.464C388.641 178.046 388.602 177.634 388.563 177.227C388.413 175.605 388.262 174.073 387.906 172.607C387.427 170.585 386.557 168.679 384.774 166.84C384.044 166.088 383.314 165.503 382.601 164.99C382.462 164.895 382.328 164.801 382.189 164.706C380.216 163.352 378.35 162.377 376.733 159.613C376.706 159.574 376.683 159.529 376.661 159.491C376.382 159.006 375.658 157.735 375.134 156.041C374.582 154.281 374.248 152.068 374.85 149.806C376.282 144.446 381.587 143.911 385.922 138.495C386.39 137.91 386.853 137.263 387.293 136.544C389.254 133.357 389.783 130.549 390.408 127.211C390.508 126.67 390.597 126.135 390.669 125.617C390.725 125.227 390.775 124.843 390.815 124.464C391.16 121.282 390.993 118.541 390.586 116.089C389.26 108.059 385.348 103.089 388.112 95.8842C388.981 93.6221 390.213 91.9225 391.455 90.4682C394.085 87.3866 396.788 85.3863 396.32 81.408C395.846 77.3959 392.803 76.8442 392.464 73.3393C392.291 71.5675 392.87 69.7008 393.957 67.8675V67.8621C397.434 61.961 406.116 56.5281 411.632 56.7009C412.652 56.7289 413.554 56.9572 414.306 57.3974C417.031 59.0021 415.895 62.507 420.068 67.4218C423.172 71.0715 426.682 72.5315 428.014 73.2223C433.291 75.9751 437.581 84.0937 440.495 94.4745C440.518 94.5526 440.54 94.6304 440.562 94.7142C442.362 101.217 443.633 108.6 444.263 116.089C444.53 119.259 444.686 122.447 444.719 125.601C444.747 128.119 444.691 130.304 444.574 132.248Z" fill="#7E71C2"/>
<path d="M407.509 169.799L406.5 172.607L405.865 174.368L404.393 178.464L402.689 183.2H391.728L393.567 178.464L394.42 176.257L395.835 172.607L398.209 166.478L407.509 169.799Z" fill="#FFB6B6"/>
<path d="M440.668 93.516C440.641 93.8784 440.602 94.2795 440.562 94.7142C440.128 99.1385 439.102 107.057 437.604 116.089C436.813 120.853 435.888 125.929 434.845 130.972C432.606 141.854 429.82 152.57 426.671 159.613C426.108 160.884 425.529 162.031 424.938 163.046C424.487 163.82 424.013 164.583 423.517 165.336C421.912 167.804 420.112 170.145 418.246 172.329C418.174 172.424 418.09 172.513 418.007 172.607C417.706 172.964 417.393 173.315 417.081 173.666C415.555 175.388 413.994 176.993 412.484 178.464C410.646 180.258 408.873 181.846 407.286 183.2H389.488L389.416 183.166L386.853 182.03C386.853 182.03 387.582 181.172 388.803 179.55C389.054 179.221 389.321 178.859 389.611 178.464C389.967 177.979 390.352 177.444 390.764 176.864C391.622 175.65 392.597 174.223 393.645 172.607C395.673 169.481 397.985 165.637 400.32 161.184C400.588 160.666 400.861 160.142 401.134 159.613C401.139 159.596 401.151 159.579 401.156 159.563C401.619 158.66 402.076 157.73 402.532 156.782C406.405 148.725 407.514 142.038 407.832 139.871C408.278 136.806 408.896 132.521 408.729 127.807C408.617 124.698 408.166 121.41 407.091 118.145V118.14C406.868 117.454 406.617 116.769 406.333 116.089C405.826 114.869 405.224 113.665 404.51 112.478C401.362 107.252 398.805 107.034 396.771 101.339C396.169 99.6511 394.804 95.8398 395.222 91.8166V91.8112C395.272 91.3152 395.356 90.8137 395.467 90.312V90.3066C395.495 90.1673 395.534 90.0225 395.573 89.8832C395.89 88.6518 396.414 87.4313 397.211 86.2722C398.766 84.0213 400.888 82.6838 402.789 81.8871L402.795 81.8814C404.99 80.9678 406.885 80.7727 407.252 80.7392C415.393 80.015 421.706 86.8574 425.156 90.5963C426.487 92.0394 427.708 93.2488 428.822 94.2348C437.498 101.98 439.877 97.0321 440.495 94.4745C440.59 94.0789 440.641 93.7391 440.668 93.516Z" fill="#7E71C2"/>
<path d="M440.696 93.2265C440.696 93.2543 440.691 93.349 440.668 93.5051C440.679 93.4213 440.685 93.3378 440.691 93.2597C440.691 93.2431 440.691 93.232 440.696 93.2265Z" fill="#7E71C2"/>
<path d="M396.442 210.804H97.747C94.9718 210.804 92.7097 213.061 92.7097 215.836C92.7097 218.617 94.9718 220.873 97.747 220.873H396.442C399.217 220.873 401.474 218.617 401.474 215.836C401.474 213.061 399.217 210.804 396.442 210.804Z" fill="#2B2945"/>
<path d="M330.156 236.815H164.028C161.253 236.815 158.996 239.072 158.996 241.847C158.996 244.622 161.253 246.884 164.028 246.884H330.156C332.931 246.884 335.193 244.622 335.193 241.847C335.193 239.072 332.931 236.815 330.156 236.815Z" fill="#2B2945"/>
<path d="M130.984 45.2875L149.809 37.3652L157.883 53.9175L138.101 61.9918L130.984 45.2875Z" fill="#FFB6B6"/>
<path opacity="0.1" d="M130.984 45.2875L149.809 37.3652L157.883 53.9175L138.101 61.9918L130.984 45.2875Z" fill="black"/>
<path d="M133.66 38.9801L152.231 60.377C152.231 60.377 139.312 101.152 126.394 104.786C113.475 108.419 89.6555 126.183 89.6555 126.183L59.7805 106.804L74.3143 85.4074C74.3143 85.4074 109.438 37.3652 118.723 37.3652C128.008 37.3652 133.66 38.9801 133.66 38.9801Z" fill="#00D084"/>
<path d="M108.57 178.464H65.3397L62.6066 174.81L51.4479 159.893L48.8802 156.461C48.8802 156.461 39.1911 138.698 41.2096 122.549C43.2282 106.401 64.2214 102.767 64.2214 102.767H65.0854L90.7859 125.351L89.2518 146.368L97.3907 159.893L108.57 178.464Z" fill="#2F2E41"/>
<path d="M74.1932 178.464H62.6066V161.306L74.1932 178.464Z" fill="#2F2E41"/>
<path d="M324.101 152.416L322.66 159.893L319.083 178.464H247.226C247.787 174.301 248.554 168.31 249.373 161.843C249.454 161.197 249.539 160.547 249.62 159.893C251.675 143.635 253.923 125.238 253.923 125.238L263.37 126.385L281.699 128.605L289.168 129.509L309.168 131.936C319.139 133.143 325.999 142.549 324.101 152.416Z" fill="#F2F2F2"/>
<path d="M425.793 178.464H386.818C387.412 177.765 387.747 177.362 387.747 177.362L399.43 175.432L423.504 171.459C423.504 171.459 424.602 174.297 425.793 178.464Z" fill="#2F2E41"/>
<path d="M260.473 53.3624L277.423 77.3327L247.857 78.2156L244.684 55.6892L260.473 53.3624Z" fill="#A0616A"/>
<path opacity="0.1" d="M260.473 53.3624L277.423 77.3327L247.857 78.2156L244.684 55.6892L260.473 53.3624Z" fill="black"/>
<path d="M176.886 103.027C174.711 96.7533 169.711 92.7901 165.719 94.1748C161.726 95.5595 160.254 101.767 162.43 108.043C163.265 110.562 164.691 112.844 166.589 114.699L176.14 141.164L188.464 136.418L177.74 110.831C178.083 108.199 177.79 105.523 176.886 103.027Z" fill="#A0616A"/>
<path d="M291.617 90.8131L291.594 115.242L289.321 124.265L284.646 142.824L281.243 159.893L278.707 172.61L277.803 177.152C277.121 177.608 276.443 178.044 275.764 178.464H216.713C213.358 176.449 211.481 174.883 211.481 174.883C211.481 174.883 212.409 174.011 213.471 172.61C215.264 170.244 217.431 166.368 216.103 162.666C215.825 161.891 215.752 160.947 215.837 159.893C216.378 152.941 223.669 141.185 223.669 141.185L222.159 123.736L221.497 116.09L226.165 78.8064L241.381 69.961L244.008 69.7068L269.939 68.306L280.656 68.9236L281.145 69.0569L291.617 90.8131Z" fill="#FF8900"/>
<path d="M292.769 178.464H279.85L279.281 172.61L279.269 172.493L282.926 172.243L292.442 171.593L292.607 175.097L292.737 177.786L292.769 178.464Z" fill="#FFB6B6"/>
<path d="M295.949 96.7195L301.376 128.561L296.947 159.893L296.257 164.77L295.038 173.381L294.662 176.029L294.674 176.316L294.767 178.464H279.426L278.861 172.61L278.812 172.085L277.658 160.095L277.638 159.893L275.187 134.467L279.991 116.09L280.347 114.737V114.733L282.437 83.2676L280.818 68.9681L280.802 68.8348C280.834 68.855 280.862 68.8752 280.895 68.8954C280.979 68.9479 281.064 69.0003 281.145 69.0569C290.576 75.04 296.195 85.5366 295.949 96.7195Z" fill="#FF8900"/>
<path d="M231.661 84.9078L225.762 78.806C225.762 78.806 213.133 84.4994 212.503 87.658C211.874 90.8166 189.576 137.209 189.576 137.209L179.875 111.299L167.247 119.73C167.247 119.73 177.379 159.956 186.855 161.845C196.331 163.733 228.09 114.233 228.09 114.233L231.661 84.9078Z" fill="#FF8900"/>
<path d="M471.204 159.613H11.7908C5.28811 159.613 0 164.907 0 171.409C0 177.912 5.2881 183.2 11.7908 183.2H471.204C477.706 183.2 483 177.912 483 171.409C483 164.906 477.706 159.613 471.204 159.613Z" fill="#2B2945"/>
<path d="M288.929 123.668L288.035 165.349C287.949 169.384 284.653 172.61 280.618 172.61H203.943C200.003 172.61 196.75 169.53 196.535 165.595L194.256 123.914C194.024 119.664 197.408 116.09 201.665 116.09H281.511C285.671 116.09 289.018 119.509 288.929 123.668Z" fill="#3F3D56"/>
<path d="M165.15 55.349C175.282 55.349 183.495 47.1358 183.495 37.0044C183.495 26.873 175.282 18.6599 165.15 18.6599C155.019 18.6599 146.806 26.873 146.806 37.0044C146.806 47.1358 155.019 55.349 165.15 55.349Z" fill="#FFB6B6"/>
<path d="M134.468 85.0037L136.487 106.804L150.213 162.113L138.354 166.27L118.319 105.997L115.552 81.7739L134.468 85.0037Z" fill="#FFB6B6"/>
<path d="M129.008 123.668L128.115 165.349C128.028 169.384 124.732 172.61 120.697 172.61H44.0224C40.082 172.61 36.829 169.53 36.6139 165.595L34.3353 123.914C34.1029 119.664 37.4869 116.09 41.7438 116.09H121.59C125.75 116.09 129.097 119.509 129.008 123.668Z" fill="#3F3D56"/>
<path d="M152.398 172.892C160.4 172.892 166.886 170.023 166.886 166.484C166.886 162.945 160.4 160.076 152.398 160.076C144.397 160.076 137.911 162.945 137.911 166.484C137.911 170.023 144.397 172.892 152.398 172.892Z" fill="#FFB6B6"/>
<path d="M106.006 88.3367L114.282 44.2284C114.282 44.2284 137.294 40.9987 138.101 48.6693C138.909 56.3399 137.524 93.8271 137.524 93.8271L106.006 88.3367Z" fill="#00D084"/>
<path d="M157.745 39.8888C157.745 39.8888 169.093 35.8387 173.88 33.6596C178.667 31.4805 188.176 46.6797 188.388 38.6525C188.599 30.6253 185.313 27.259 185.313 27.259C185.313 27.259 184.493 9.69835 166.801 11.8938C166.801 11.8938 170.692 3.10804 157.918 1.74948C145.145 0.390916 125.272 31.2379 127.051 35.8478C128.831 40.4577 130.965 44.2689 125.915 49.1979C120.866 54.1269 111.411 81.945 118.605 89.4306C125.798 96.9163 126.27 100.165 121.342 104.822C116.413 109.479 104.762 119.605 117.359 121.363C129.956 123.121 116.207 121.808 125.598 113.547C134.989 105.286 148.693 105.624 143.576 92.3702C138.459 79.1167 147.349 60.1246 146.237 57.2434C145.124 54.3622 148.729 36.0665 148.729 36.0665C148.729 36.0665 157.118 34.8339 157.745 39.8888Z" fill="#2F2E41"/>
<path d="M251.411 62.0385C262.439 62.0385 271.38 53.0979 271.38 42.0691C271.38 31.0403 262.439 22.0997 251.411 22.0997C240.382 22.0997 231.441 31.0403 231.441 42.0691C231.441 53.0979 240.382 62.0385 251.411 62.0385Z" fill="#A0616A"/>
<path d="M253.004 15.2217C252.426 15.559 251.653 15.0487 251.467 14.4057C251.282 13.7628 251.498 13.0802 251.712 12.4463L252.789 9.25505C253.553 6.99174 254.364 4.64933 256.019 2.92666C258.517 0.326558 262.487 -0.334896 266.061 0.144304C270.65 0.759693 275.178 3.24468 277.312 7.35393C279.445 11.4632 278.537 17.1971 274.681 19.7608C280.176 26.0592 282.092 33.0786 281.79 41.4318C281.487 49.785 272.384 57.4726 266.448 63.3571C265.122 62.5535 263.917 58.7874 264.646 57.4193C265.375 56.0512 264.33 54.4661 265.233 53.2059C266.136 51.9457 266.891 53.9523 265.979 52.6993C265.403 51.9086 267.651 50.0896 266.795 49.6163C262.654 47.3273 261.276 42.1657 258.676 38.2131C255.538 33.4455 250.169 30.2168 244.487 29.6812C241.357 29.3861 238.051 29.9206 235.486 31.7377C232.92 33.5548 231.26 36.8019 231.854 39.889C230.314 38.3246 229.547 36.0319 229.836 33.8553C230.125 31.6787 231.464 29.666 233.36 28.5583C232.208 24.7461 233.195 20.3611 235.871 17.4111C238.546 14.4611 249.4 14.9636 253.306 15.7399L253.004 15.2217Z" fill="#2F2E41"/>
<path d="M253.611 29.7969C258.785 30.3554 262.52 34.837 265.675 38.9757C267.493 41.3611 269.397 43.9955 269.351 46.9944C269.305 50.0265 267.278 52.6271 266.309 55.5006C264.726 60.1973 266.269 65.7853 270.039 69.0035C266.314 69.7103 262.287 66.9174 261.644 63.181C260.896 58.8314 264.193 54.6333 263.802 50.237C263.458 46.3639 260.406 43.383 257.811 40.487C255.216 37.5911 252.779 33.7482 253.973 30.0475L253.611 29.7969Z" fill="#2F2E41"/>
<path d="M330.957 162.137C325.832 165.052 323.182 170.059 325.038 173.32C326.893 176.581 332.551 176.861 337.677 173.944C339.74 172.807 341.502 171.193 342.813 169.235L364.371 156.611L358.231 146.621L337.631 160.127C335.278 160.255 332.989 160.944 330.957 162.137Z" fill="#FFB6B6"/>
<path d="M403.945 69.5632C403.301 69.3079 397.648 67.1673 392.488 69.9935C386.56 73.24 385.644 80.6511 385.323 83.2504C384.581 89.255 386.767 90.6008 387.228 96.6797C388.091 108.053 390.367 95.0783 386.733 100.27C385.475 102.066 372.625 129.912 365.539 135.367C351.757 145.974 343.006 153.445 343.006 153.445L352.997 164.298C352.997 164.298 368.785 160.091 382.739 151.031C397.053 141.736 404.21 137.089 409.747 127.998C410.224 127.215 421.633 107.84 415.505 86.4163C414.108 81.5295 411.547 72.5759 403.945 69.5632Z" fill="#7E71C2"/>
<path d="M455.536 123.668L454.643 165.349C454.556 169.384 451.261 172.61 447.225 172.61H370.551C366.61 172.61 363.357 169.53 363.142 165.595L360.864 123.914C360.631 119.664 364.015 116.09 368.272 116.09H448.118C452.278 116.09 455.625 119.509 455.536 123.668Z" fill="#3F3D56"/>
</g>
<defs>
<clipPath id="clip0_19_638">
<rect width="483" height="246.884" fill="white"/>
</clipPath>
</defs>
</svg>
