<svg width="37" height="19" viewBox="0 0 37 19" fill="none" xmlns="http://www.w3.org/2000/svg">
<path d="M6.575 13.025H12V9.85H7.425L6.575 13.025ZM10.475 1.5V19H14.15V1.5H10.475ZM4.45 1.5H0.9V6.9C0.9 8.01667 1.11667 9.04167 1.55 9.975C1.98333 10.9083 2.625 11.65 3.475 12.2C4.325 12.75 5.35833 13.025 6.575 13.025L7.425 9.85C6.825 9.85 6.3 9.71667 5.85 9.45C5.4 9.18333 5.05 8.8 4.8 8.3C4.56667 7.8 4.45 7.20833 4.45 6.525V1.5Z" fill="white"/>
<path d="M21.8887 9.175L26.9637 17.375L32.0387 9.175L33.1637 19H36.8887L34.2887 0.625L26.9637 11.925L19.6387 0.625L17.0387 19H20.7637L21.8887 9.175Z" fill="#FF8900"/>
</svg>
